<svg width="237" height="91" viewBox="0 0 237 91" fill="none" xmlns="http://www.w3.org/2000/svg">
<g clip-path="url(#clip0_306_558)">
<path d="M233.469 48.0348C233.335 47.9302 233.186 47.8404 233.037 47.7507C232.903 47.646 232.754 47.5563 232.605 47.4666C232.471 47.3619 232.322 47.2721 232.173 47.1824C232.039 47.0777 231.89 46.988 231.741 46.8983C231.607 46.7936 231.458 46.7039 231.309 46.6141C231.175 46.5094 231.026 46.4197 230.877 46.33C230.743 46.2253 230.594 46.1356 230.445 46.0459C230.311 45.9412 230.162 45.8514 230.013 45.7617C229.879 45.657 229.73 45.5673 229.581 45.4776C229.447 45.3729 229.298 45.2832 229.149 45.1934C229.015 45.0887 228.866 44.999 228.717 44.9093C228.583 44.8046 228.434 44.7149 228.285 44.6251V17.4223C228.285 14.7454 226.869 12.4125 224.754 11.0965C224.62 10.9918 224.471 10.9021 224.322 10.8123C224.188 10.7076 224.039 10.6179 223.89 10.5282C223.756 10.4235 223.607 10.3338 223.458 10.244C223.324 10.1394 223.175 10.0496 223.026 9.9599C222.891 9.85522 222.742 9.76549 222.593 9.67576C222.459 9.57108 222.31 9.48135 222.161 9.39162C222.027 9.28693 221.878 9.19721 221.729 9.10748C221.595 9.00279 221.446 8.91306 221.297 8.82334C221.163 8.71865 221.014 8.62892 220.865 8.5392C220.731 8.43451 220.582 8.34478 220.433 8.25505C220.299 8.15037 220.15 8.06064 220.001 7.97091C219.867 7.86623 219.718 7.7765 219.569 7.68677C219.435 7.58209 219.286 7.49236 219.137 7.40263C219.003 7.29795 218.854 7.20822 218.705 7.11849C218.571 7.0138 218.422 6.92408 218.273 6.83435C218.139 6.72966 217.99 6.63993 217.841 6.55021C217.707 6.44552 217.558 6.35579 217.409 6.26606C217.275 6.16138 217.126 6.07165 216.977 5.98192C216.843 5.87724 216.694 5.78751 216.545 5.69778C216.411 5.5931 216.262 5.50337 216.113 5.41364C215.979 5.30896 215.83 5.21923 215.681 5.1295C215.547 5.02482 215.398 4.93509 215.249 4.84536C215.115 4.74067 214.966 4.65094 214.817 4.56122C214.683 4.45653 214.534 4.3668 214.385 4.27707C214.251 4.17239 214.102 4.08266 213.953 3.99293C213.818 3.88825 213.669 3.79852 213.521 3.70879C213.386 3.60411 213.237 3.51438 213.088 3.42465C212.954 3.31997 212.805 3.23024 212.656 3.14051C212.522 3.03583 212.373 2.9461 212.224 2.85637C212.09 2.75168 211.941 2.66196 211.792 2.57223C210.571 1.67494 209.066 1.13657 207.442 1.13657H186.331C184.261 1.13657 182.294 2.00394 180.879 3.51438L159.932 26.0812C157.369 22.0284 154.077 18.6337 150.114 15.9717C149.965 15.8671 149.831 15.7773 149.682 15.6876C149.533 15.5829 149.399 15.4932 149.25 15.4035C149.101 15.2988 148.967 15.209 148.818 15.1193C148.669 15.0146 148.535 14.9249 148.386 14.8352C148.237 14.7305 148.103 14.6408 147.954 14.551C147.805 14.4463 147.671 14.3566 147.522 14.2669C147.373 14.1622 147.239 14.0725 147.09 13.9827C146.941 13.8781 146.807 13.7883 146.658 13.6986C146.509 13.5939 146.374 13.5042 146.225 13.4145C146.077 13.3098 145.942 13.22 145.793 13.1303C145.644 13.0256 145.51 12.9359 145.361 12.8462C145.212 12.7415 145.078 12.6518 144.929 12.562C144.78 12.4574 144.646 12.3676 144.497 12.2779C144.348 12.1732 144.214 12.0835 144.065 11.9938C143.916 11.8891 143.782 11.7993 143.633 11.7096C143.469 11.3657 143.32 11.2759 143.171 11.1712C143.022 11.0666 142.888 10.9768 142.739 10.8871C142.59 10.7824 142.456 10.6927 142.307 10.603C142.158 10.4983 142.024 10.4085 141.875 10.3188C141.726 10.2141 141.592 10.1244 141.443 10.0347C141.294 9.92999 141.16 9.84026 141.011 9.75053C140.862 9.64585 140.728 9.55612 140.579 9.46639C140.43 9.36171 140.296 9.27198 140.147 9.18225C139.998 9.07757 139.864 8.98784 139.715 8.89811C139.566 8.79343 139.432 8.7037 139.283 8.61397C139.134 8.50928 139 8.41956 138.851 8.32983C138.702 8.22514 138.568 8.13542 138.419 8.04569C138.27 7.941 138.136 7.85127 137.987 7.76154C137.838 7.65686 137.704 7.56713 137.555 7.4774C137.406 7.37272 137.272 7.28299 137.123 7.19326C130.478 2.51241 121.927 0 111.841 0C99.6687 0 89.7317 3.64897 82.6699 10.2291L82.655 10.2141C82.5209 10.1094 82.372 10.0197 82.223 9.92999C82.074 9.82531 81.9399 9.73558 81.7909 9.64585C81.6568 9.54117 81.5079 9.45144 81.3589 9.36171C81.2248 9.25703 81.0758 9.1673 80.9268 9.07757C80.7927 8.97288 80.6438 8.88315 80.4948 8.79343C80.3607 8.68874 80.2117 8.59901 80.0627 8.50928C79.9287 8.4046 79.7797 8.31487 79.6307 8.22514C79.4966 8.12046 79.3476 8.03073 79.1986 7.941C79.0646 7.83632 78.9156 7.74659 78.7666 7.65686C78.6325 7.55218 78.4835 7.46245 78.3346 7.37272C78.2005 7.26804 78.0515 7.17831 77.9025 7.08858C77.7684 6.98389 77.6194 6.89417 77.4705 6.80444C77.3215 6.63993 77.1725 6.55021 77.0235 6.46048C76.8894 6.35579 76.7404 6.26606 76.5915 6.17634C76.4574 6.07165 76.3084 5.98192 76.1594 5.89219C76.0253 5.78751 75.8764 5.69778 75.7274 5.60805C75.5933 5.50337 75.4443 5.41364 75.2953 5.32391C75.1612 5.21923 75.0123 5.1295 74.8633 5.03977C74.7292 4.93509 74.5802 4.84536 74.4312 4.75563C74.2971 4.65094 74.1482 4.56122 73.9992 4.47149C73.8651 4.3668 73.7161 4.27707 73.5671 4.18735C73.4331 4.08266 73.2841 3.99293 73.1351 3.9032C73.001 3.75366 72.852 3.64897 72.703 3.55924C72.569 3.45456 72.42 3.36483 72.271 3.2751C72.1369 3.17042 71.9879 3.08069 71.839 2.99096C71.7049 2.88628 71.5559 2.79655 71.4069 2.70682C71.2728 2.60214 71.1238 2.51241 70.9749 2.42268C69.7532 1.52539 68.2485 0.987017 66.6246 0.987017H45.5139C43.4431 0.987017 41.4765 1.8544 40.0612 3.36483L1.99635 44.3709C0.715112 45.7617 0 47.5862 0 49.4705V61.8232C0 64.5001 1.41533 66.833 3.53086 68.1491C3.66495 68.2537 3.81393 68.3435 3.96291 68.4332C4.097 68.5379 4.24598 68.6276 4.39496 68.7173C4.52904 68.822 4.67802 68.9118 4.82701 69.0015C4.96109 69.1062 5.11007 69.1959 5.25905 69.2856C5.39314 69.3903 5.54212 69.48 5.6911 69.5698C5.82518 69.6744 5.97416 69.7642 6.12315 69.8539C6.25723 69.9885 6.40621 70.0782 6.55519 70.1829C6.68928 70.2876 6.83826 70.3773 6.98724 70.467C7.12132 70.5717 7.2703 70.6615 7.41929 70.7512C7.55337 70.8559 7.70235 70.9456 7.85133 71.0353C7.98542 71.14 8.1344 71.2297 8.28338 71.3195C8.41746 71.4242 8.56645 71.5139 8.71543 71.6036C8.84951 71.7083 8.99849 71.798 9.14747 71.8878C9.28156 71.9924 9.43054 72.0822 9.57952 72.1719C9.7136 72.2766 9.86259 72.3663 10.0116 72.456C10.1456 72.5607 10.2946 72.6505 10.4436 72.7402C10.5777 72.8449 10.7267 72.9346 10.8757 73.0243C11.0097 73.129 11.1587 73.2187 11.3077 73.3085C11.4418 73.4131 11.5908 73.5029 11.7398 73.5926C11.8738 73.6973 12.0228 73.787 12.1718 73.8767C12.3059 73.9814 12.4549 74.0712 12.6038 74.1609C12.7379 74.2656 12.8869 74.3553 13.0359 74.445C13.17 74.5497 13.319 74.6394 13.4679 74.7292C13.602 74.8339 13.751 74.9236 13.9 75.0133C14.0341 75.118 14.1831 75.2077 14.332 75.2974C14.4661 75.4021 14.6151 75.4919 14.7641 75.5816C14.8982 75.6863 15.0471 75.776 15.1961 75.8657C15.3302 75.9704 15.4792 76.0601 15.6282 76.1499C15.7623 76.2546 15.9112 76.3443 16.0602 76.434C16.1943 76.5387 16.3433 76.6284 16.4923 76.7182C17.7139 77.6154 19.2186 78.1538 20.8425 78.1538H42.6385C43.16 78.7969 43.7708 79.3652 44.471 79.7989C44.6051 79.9035 44.7541 79.9933 44.9031 80.083C45.0372 80.1877 45.1861 80.2774 45.3351 80.3671C45.4692 80.4718 45.6182 80.5615 45.7672 80.6513C45.9012 80.756 46.0502 80.8457 46.1992 80.9354C46.3333 81.0401 46.4823 81.1298 46.6313 81.2196C46.7653 81.3242 46.9143 81.414 47.0633 81.5037C47.1974 81.6084 47.3464 81.6981 47.4953 81.7878C47.6294 81.8925 47.7784 81.9823 47.9274 82.072C48.0615 82.1767 48.2105 82.2664 48.3594 82.3561C48.4935 82.4608 48.6425 82.5505 48.7915 82.6403C48.9256 82.7449 49.0746 82.8347 49.2235 82.9244C49.3576 83.0291 49.5066 83.1188 49.6556 83.2085C49.7897 83.3132 49.9386 83.403 50.0876 83.4927C50.2217 83.5974 50.3707 83.6871 50.5197 83.7768C50.6538 83.8815 50.8027 83.9712 50.9517 84.061C51.0858 84.1656 51.2348 84.2554 51.3838 84.3451C51.5179 84.4498 51.6668 84.5395 51.8158 84.6292C51.9499 84.7339 52.0989 84.8237 52.2479 84.9134C52.382 85.0181 52.5309 85.1078 52.6799 85.1975C52.814 85.3022 52.963 85.3919 53.112 85.4817C53.246 85.5864 53.395 85.6761 53.544 85.7658C53.6781 85.8705 53.8271 85.9602 53.9761 86.05C54.1101 86.1546 54.2591 86.2444 54.4081 86.3341C54.5422 86.4388 54.6912 86.5285 54.8401 86.6182C54.9742 86.7229 55.1232 86.8127 55.2722 86.9024C55.4063 87.0071 55.5553 87.0968 55.7042 87.1865C55.8383 87.2912 55.9873 87.3809 56.1363 87.4707C56.2704 87.5753 56.4194 87.6651 56.5683 87.7548C56.7024 87.8595 56.8514 87.9492 57.0004 88.0389C57.1345 88.1436 57.2834 88.2334 57.4324 88.3231C58.6541 89.2204 60.1588 89.7588 61.7827 89.7588H79.9883C84.1001 89.7588 87.4373 86.4089 87.4373 82.2813V77.9893H88.7037C89.4784 77.9893 90.2382 77.8547 90.9384 77.6304C90.998 77.6753 91.0725 77.7052 91.1321 77.75C91.2811 77.8547 91.4151 77.9445 91.5641 78.0342C91.7131 78.1239 91.8472 78.2286 91.9962 78.3183C92.1452 78.4081 92.2792 78.5127 92.4282 78.6025C92.5772 78.7071 92.7113 78.7969 92.8603 78.8866C93.0092 78.9763 93.1433 79.081 93.2923 79.1707C93.4413 79.2605 93.5754 79.3652 93.7244 79.4549C93.8733 79.5596 94.0074 79.6493 94.1564 79.739C94.3054 79.8288 94.4395 79.9334 94.5885 80.0232C94.7374 80.1129 94.8715 80.2176 95.0205 80.3073C95.1695 80.412 95.3036 80.5017 95.4525 80.5915C95.6015 80.6812 95.7356 80.7859 95.8846 80.8756C96.0336 80.9653 96.1677 81.07 96.3166 81.1597C96.4656 81.2644 96.5997 81.3541 96.7487 81.4439C96.8977 81.5336 97.0318 81.6383 97.1807 81.728C97.3297 81.8327 97.4638 81.9224 97.6128 82.0122C97.7618 82.1019 97.8958 82.2066 98.0448 82.2963C98.1938 82.386 98.3279 82.4907 98.4769 82.5804C98.6259 82.6851 98.7599 82.7749 98.9089 82.8646C99.0579 82.9543 99.192 83.059 99.341 83.1487C99.49 83.2384 99.624 83.3431 99.773 83.4329C99.922 83.5376 100.056 83.6273 100.205 83.717C106.82 88.1735 115.267 90.5962 125.189 90.5962C139.417 90.5962 150.606 85.6163 157.667 76.7331C158.814 77.4509 160.155 77.8547 161.6 77.8547H183.396C183.918 78.4978 184.529 79.0661 185.229 79.4997C185.363 79.6044 185.512 79.6942 185.661 79.7839C185.795 79.8886 185.944 79.9783 186.093 80.068C186.227 80.1727 186.376 80.2624 186.525 80.3522C186.659 80.4569 186.808 80.5466 186.957 80.6363C187.091 80.741 187.24 80.8307 187.389 80.9205C187.523 81.0251 187.672 81.1149 187.821 81.2046C187.955 81.3093 188.104 81.399 188.253 81.4887C188.387 81.5934 188.536 81.6832 188.685 81.7729C188.819 81.8776 188.968 81.9673 189.117 82.057C189.251 82.1617 189.4 82.2514 189.549 82.3412C189.683 82.4459 189.832 82.5356 189.981 82.6253C190.115 82.73 190.264 82.8197 190.413 82.9094C190.548 83.0141 190.697 83.1039 190.846 83.1936C190.98 83.2983 191.129 83.388 191.278 83.4777C191.412 83.5824 191.561 83.6721 191.71 83.7619C191.844 83.8666 191.993 83.9563 192.142 84.046C192.276 84.1507 192.425 84.2404 192.574 84.3302C192.708 84.4348 192.857 84.5246 193.006 84.6143C193.14 84.719 193.289 84.8087 193.438 84.8984C193.572 85.0031 193.721 85.0928 193.87 85.1826C194.004 85.2873 194.153 85.377 194.302 85.4667C194.436 85.5714 194.585 85.6611 194.734 85.7509C194.868 85.8555 195.017 85.9453 195.166 86.035C195.3 86.1397 195.449 86.2294 195.598 86.3191C195.732 86.4238 195.881 86.5136 196.03 86.6033C196.164 86.708 196.313 86.7977 196.462 86.8874C196.596 86.9921 196.745 87.0818 196.894 87.1716C197.028 87.2763 197.177 87.366 197.326 87.4557C197.46 87.5604 197.609 87.6501 197.758 87.7398C197.892 87.8445 198.041 87.9343 198.19 88.024C199.412 88.9213 200.917 89.4597 202.541 89.4597H220.746C224.858 89.4597 228.195 86.1098 228.195 81.9822V77.6902H229.462C233.573 77.6902 236.911 74.3403 236.911 70.2128V54.3607C237 51.6838 235.57 49.3509 233.469 48.0348Z" fill="#01131E"/>
<path d="M66.6247 8.44948H45.514L7.44922 49.4705V61.8232H48.4192V73.5926H66.6247V61.8232H75.3401V45.3879H66.6247V8.44948ZM48.4192 45.3879H32.8208V44.1316L47.1528 29.3563H48.4043V45.3879H48.4192ZM111.841 7.47742C89.7616 7.47742 78.2304 21.0863 78.2304 41.021C78.2304 61.0455 89.7616 74.5647 111.841 74.5647C133.83 74.5647 145.347 61.0455 145.347 41.021C145.347 21.0863 133.83 7.47742 111.841 7.47742ZM111.841 56.7685C100.697 56.7685 97.7917 53.0746 97.7917 41.021C97.7917 28.9675 100.697 25.2736 111.841 25.2736C122.88 25.2736 125.785 28.9675 125.785 41.021C125.785 53.0746 122.88 56.7685 111.841 56.7685ZM207.427 45.3879V8.44948H186.317L148.252 49.4705V61.8232H189.207V73.5926H207.412V61.8232H216.128V45.3879H207.427ZM189.207 45.3879H173.623V44.1316L187.955 29.3563H189.207V45.3879Z" fill="#F94A29"/>
</g>
<defs>
<clipPath id="clip0_306_558">
<rect width="237" height="91" fill="white"/>
</clipPath>
</defs>
</svg>
