<svg width="24" height="24" viewBox="0 0 24 24" fill="none" xmlns="http://www.w3.org/2000/svg">
<rect width="24" height="24" rx="4" fill="#1769FF"/>
<path fill-rule="evenodd" clip-rule="evenodd" d="M11.8352 10.0225C11.8352 9.55991 11.714 9.16343 11.4724 8.83155C11.0698 8.29104 10.3872 8.01411 9.42238 8H5.59998V15.8032H9.16424C9.56612 15.8032 9.9379 15.7691 10.2818 15.6986C10.6258 15.6273 10.923 15.4974 11.1752 15.3065C11.3994 15.1402 11.5861 14.9353 11.7351 14.6925C11.9706 14.3258 12.088 13.9107 12.088 13.4482C12.088 12.9997 11.9849 12.6181 11.7802 12.3048C11.5733 11.9907 11.2692 11.7613 10.8658 11.6158C11.1315 11.4821 11.3324 11.3336 11.4694 11.1718C11.714 10.8822 11.8352 10.4984 11.8352 10.0225ZM17.1688 9.33494H13.7791V8.36381H17.1688V9.33494ZM14.1742 12.3471C14.2299 11.9714 14.3661 11.6737 14.5821 11.4539C14.7981 11.2342 15.1037 11.1243 15.495 11.1243C15.8563 11.1243 16.158 11.2275 16.4034 11.4346C16.6457 11.6432 16.7827 11.9462 16.8105 12.3471H14.1742ZM16.87 10.1502C17.2787 10.3298 17.6151 10.6149 17.88 11.004C18.1216 11.347 18.2766 11.745 18.3473 12.1971C18.3887 12.4614 18.4053 12.8445 18.3985 13.3427H14.1366C14.1622 13.9211 14.3639 14.3272 14.7492 14.5596C14.9825 14.7044 15.2632 14.7772 15.5929 14.7772C15.9398 14.7772 16.2235 14.6888 16.441 14.5129C16.5607 14.4171 16.666 14.2849 16.7564 14.1156H18.318C18.2766 14.4572 18.0869 14.8054 17.7513 15.1588C17.2275 15.7194 16.4937 16 15.5507 16C14.7718 16 14.0847 15.7639 13.4909 15.2902C12.8941 14.8173 12.5975 14.0466 12.5975 12.9804C12.5975 11.9803 12.8662 11.2134 13.4028 10.6795C13.9409 10.1472 14.6371 9.87916 15.4943 9.87916C16.0038 9.87916 16.4621 9.96974 16.87 10.1502ZM7.17665 14.449V12.3679H9.12435C9.46302 12.3709 9.72717 12.4154 9.91532 12.5C10.2517 12.6523 10.4188 12.9307 10.4188 13.3375C10.4188 13.8172 10.2457 14.1409 9.89876 14.3116C9.70836 14.403 9.44044 14.449 9.09726 14.449H7.17665ZM7.17665 9.35499V11.0768H9.10027C9.4427 11.0768 9.72191 11.0122 9.93715 10.883C10.1509 10.7538 10.2585 10.5251 10.2585 10.1984C10.2585 9.83387 10.117 9.59406 9.83404 9.47675C9.5887 9.39582 9.27713 9.35499 8.89857 9.35499H7.17665Z" fill="white"/>
</svg>
