<svg width="16" height="16" viewBox="0 0 16 16" fill="none" xmlns="http://www.w3.org/2000/svg">
<path d="M9.27081 14.6765C9.05458 14.6765 8.84898 14.5877 8.7001 14.428L7.39206 13.0363L6.08403 14.428C5.93515 14.5877 5.72955 14.6765 5.51332 14.6765C5.13403 14.6765 4.80791 14.4067 4.73701 14.0339L4.38961 12.1523L2.53923 12.6174C2.47542 12.6316 2.41161 12.6422 2.34781 12.6422C2.08549 12.6422 1.84444 12.5109 1.69556 12.2908C1.55023 12.0742 1.52187 11.7973 1.62112 11.5559L2.34427 9.78432L0.536416 9.17014C0.252832 9.07428 0.0507819 8.83287 0.00824429 8.53465C-0.0342933 8.23999 0.0897687 7.94887 0.33436 7.77846L1.89762 6.68145L0.706571 5.18682C0.522241 4.95251 0.483249 4.6401 0.607317 4.36673C0.731385 4.09692 0.993698 3.91941 1.29146 3.90876L3.19857 3.83065L3.0036 1.92775C2.97878 1.70409 3.04968 1.48753 3.2021 1.32067C3.35099 1.15381 3.56723 1.05796 3.787 1.05796C3.92525 1.05796 4.0635 1.09701 4.18402 1.16801L5.8288 2.13366L6.69019 0.429573C6.82489 0.166859 7.0943 0 7.39206 0C7.68983 0 7.95924 0.166859 8.09394 0.433123L8.96241 2.14431L10.6037 1.17156C10.7242 1.10056 10.8624 1.06151 11.0007 1.06151C11.224 1.06151 11.4367 1.15736 11.5856 1.32422C11.7345 1.49108 11.8053 1.70764 11.7841 1.9313L11.5891 3.8342L13.4962 3.91231C13.794 3.92296 14.0563 4.10047 14.1804 4.37028C14.3044 4.6401 14.2654 4.95606 14.0811 5.19038L12.8901 6.685L14.4533 7.78201C14.6979 7.95242 14.822 8.24354 14.7794 8.5382C14.7369 8.83287 14.5348 9.07783 14.2548 9.17369L12.447 9.78787L13.1701 11.5559C13.2694 11.8008 13.241 12.0742 13.0956 12.2908C12.9503 12.5109 12.7057 12.6422 12.4434 12.6422C12.3796 12.6422 12.3158 12.6351 12.252 12.6174L10.3981 12.1558L10.0507 14.0339C9.97622 14.4031 9.65011 14.6765 9.27081 14.6765Z" fill="#01131E"/>
<path d="M9.30981 14.7083C9.09358 14.7083 8.88798 14.6196 8.7391 14.4598L7.43107 13.0682L6.12304 14.4598C5.97416 14.6196 5.76855 14.7083 5.55232 14.7083C5.17302 14.7083 4.8469 14.4385 4.77601 14.0658L4.42862 12.1842L2.57823 12.6492C2.51443 12.6634 2.45062 12.6741 2.38681 12.6741C2.1245 12.6741 1.88345 12.5427 1.73457 12.3226C1.58923 12.1061 1.56088 11.8291 1.66013 11.5877L2.38326 9.81619L0.575413 9.20201C0.291828 9.10615 0.0897781 8.86474 0.0472405 8.56652C0.00470286 8.27186 0.128776 7.98074 0.373367 7.81033L1.93663 6.71332L0.745567 5.2187C0.561237 4.98438 0.522245 4.67197 0.646313 4.3986C0.770381 4.12879 1.03269 3.95128 1.33046 3.94063L3.23756 3.86252L3.0426 1.95962C3.01779 1.73596 3.08868 1.5194 3.24111 1.35254C3.38999 1.18568 3.60622 1.08983 3.826 1.08983C3.96425 1.08983 4.10249 1.12888 4.22302 1.19988L5.86781 2.16553L6.7292 0.461443C6.8639 0.195179 7.13331 0.0283203 7.43107 0.0283203C7.72883 0.0283203 7.99823 0.195179 8.13293 0.461443L9.00141 2.17263L10.6427 1.19988C10.7632 1.12888 10.9014 1.08983 11.0397 1.08983C11.263 1.08983 11.4757 1.18568 11.6246 1.35254C11.7734 1.5194 11.8443 1.73596 11.8231 1.95962L11.6281 3.86252L13.5352 3.94063C13.833 3.95128 14.0953 4.12879 14.2194 4.3986C14.3434 4.66842 14.3044 4.98438 14.1201 5.2187L12.9291 6.71332L14.4923 7.81033C14.7369 7.98074 14.861 8.27186 14.8184 8.56652C14.7759 8.86119 14.5738 9.10615 14.2938 9.20201L12.486 9.81619L13.2091 11.5842C13.3083 11.8291 13.28 12.1025 13.1347 12.3191C12.9893 12.5392 12.7447 12.6705 12.4824 12.6705C12.4186 12.6705 12.3548 12.6634 12.291 12.6457L10.4371 12.1842L10.0897 14.0622C10.0152 14.4385 9.69265 14.7083 9.30981 14.7083Z" fill="#01131E"/>
<path d="M9.34881 14.7403C9.13258 14.7403 8.92699 14.6516 8.7781 14.4918L7.47007 13.1001L6.16204 14.4918C6.01316 14.6516 5.80756 14.7403 5.59133 14.7403C5.21204 14.7403 4.88591 14.4705 4.81502 14.0977L4.46762 12.2161L2.61724 12.6812C2.55343 12.6954 2.48962 12.7061 2.42581 12.7061C2.1635 12.7061 1.92245 12.5747 1.77357 12.3546C1.62823 12.138 1.59988 11.8611 1.69913 11.6197L2.42228 9.84817L0.614424 9.23399C0.33084 9.13813 0.12879 8.89672 0.086252 8.59851C0.0437144 8.30384 0.167776 8.01272 0.412368 7.84232L1.97563 6.74531L0.784578 5.25068C0.600249 5.01637 0.561256 4.70395 0.685324 4.43058C0.809393 4.16077 1.07171 3.98326 1.36947 3.97261L3.27657 3.89451L3.0816 1.99161C3.05679 1.76794 3.12769 1.55138 3.28011 1.38452C3.42899 1.21766 3.64523 1.12181 3.86501 1.12181C4.00326 1.12181 4.14151 1.16086 4.26203 1.23186L5.90681 2.19752L6.7682 0.493426C6.9029 0.227162 7.17231 0.0603027 7.47007 0.0603027C7.76783 0.0603027 8.03724 0.227162 8.17195 0.493426L9.04042 2.20462L10.6817 1.23186C10.8022 1.16086 10.9404 1.12181 11.0787 1.12181C11.302 1.12181 11.5147 1.21766 11.6636 1.38452C11.8125 1.55138 11.8834 1.76794 11.8621 1.99161L11.6671 3.89451L13.5742 3.97261C13.872 3.98326 14.1343 4.16077 14.2584 4.43058C14.3824 4.7004 14.3434 5.01637 14.1591 5.25068L12.9681 6.74531L14.5313 7.84232C14.7759 8.01272 14.9 8.30384 14.8574 8.59851C14.8149 8.89317 14.6129 9.13813 14.3328 9.23399L12.525 9.84817L13.2481 11.6162C13.3473 11.8611 13.319 12.1345 13.1737 12.3511C13.0283 12.5712 12.7837 12.7025 12.5214 12.7025C12.4576 12.7025 12.3938 12.6954 12.33 12.6777L10.4796 12.2161L10.1322 14.0942C10.0542 14.4705 9.73165 14.7403 9.34881 14.7403Z" fill="#01131E"/>
<path d="M9.38782 14.7759C9.17159 14.7759 8.96598 14.6871 8.8171 14.5273L7.50908 13.1357L6.20105 14.5273C6.05217 14.6871 5.84656 14.7759 5.63033 14.7759C5.25103 14.7759 4.92491 14.506 4.85402 14.1333L4.50663 12.2517L2.65625 12.7167C2.59244 12.7309 2.52863 12.7416 2.46482 12.7416C2.20251 12.7416 1.96146 12.6102 1.81258 12.3901C1.66724 12.1736 1.63889 11.8967 1.73814 11.6552L2.46127 9.88369L0.653423 9.26951C0.369839 9.17366 0.167789 8.93224 0.125251 8.63403C0.0827134 8.33936 0.206786 8.04825 0.451378 7.87784L2.01464 6.78083L0.823578 5.2862C0.639248 5.05189 0.600255 4.73947 0.724323 4.46611C0.848392 4.19629 1.1107 4.01878 1.40847 4.00813L3.31557 3.93003L3.12061 2.02713C3.0958 1.80347 3.1667 1.5869 3.31912 1.42005C3.468 1.25319 3.68423 1.15733 3.90401 1.15733C4.04226 1.15733 4.1805 1.19638 4.30103 1.26739L5.94582 2.23304L6.80721 0.528948C6.94191 0.262684 7.21132 0.0958252 7.50908 0.0958252C7.80684 0.0958252 8.07624 0.262684 8.21094 0.528948L9.07943 2.24014L10.7207 1.26739C10.8412 1.19638 10.9794 1.15733 11.1177 1.15733C11.341 1.15733 11.5537 1.25319 11.7026 1.42005C11.8515 1.5869 11.9224 1.80347 11.9011 2.02713L11.7061 3.93003L13.6132 4.00813C13.911 4.01878 14.1733 4.19629 14.2974 4.46611C14.4214 4.73592 14.3824 5.05189 14.1981 5.2862L13.0071 6.78083L14.5703 7.87784C14.8149 8.04825 14.939 8.33936 14.8964 8.63403C14.8539 8.92869 14.6519 9.17366 14.3718 9.26951L12.564 9.88369L13.2871 11.6517C13.3864 11.8967 13.358 12.17 13.2127 12.3866C13.0673 12.6067 12.8227 12.738 12.5604 12.738C12.4966 12.738 12.4328 12.7309 12.369 12.7132L10.5186 12.2517L10.1712 14.1297C10.0932 14.5025 9.77066 14.7759 9.38782 14.7759Z" fill="#01131E"/>
<path d="M9.42682 14.8078C9.21059 14.8078 9.005 14.7191 8.85612 14.5593L7.54808 13.1676L6.24005 14.5593C6.09117 14.7191 5.88557 14.8078 5.66934 14.8078C5.29005 14.8078 4.96393 14.538 4.89303 14.1653L4.54563 12.2837L2.69525 12.7487C2.63144 12.7629 2.56763 12.7736 2.50383 12.7736C2.24151 12.7736 2.00046 12.6422 1.85158 12.4221C1.70625 12.2055 1.67789 11.9286 1.77715 11.6872L2.50029 9.91568L0.692437 9.30149C0.408852 9.20564 0.206802 8.96423 0.164264 8.66601C0.121727 8.37134 0.245789 8.08023 0.49038 7.90982L2.05364 6.81281L0.862591 5.31818C0.678261 5.08387 0.639269 4.77145 0.763337 4.49809C0.887405 4.22828 1.14972 4.05077 1.44748 4.04012L3.35459 3.96201L3.15962 2.05911C3.1348 1.83545 3.2057 1.61889 3.35812 1.45203C3.50701 1.28517 3.72324 1.18931 3.94301 1.18931C4.08126 1.18931 4.21952 1.22837 4.34004 1.29937L5.98482 2.26502L6.84621 0.560931C6.98091 0.294666 7.25032 0.127808 7.54808 0.127808C7.84585 0.127808 8.11526 0.294666 8.24996 0.560931L9.11843 2.27212L10.7597 1.29937C10.8802 1.22837 11.0184 1.18931 11.1567 1.18931C11.38 1.18931 11.5927 1.28517 11.7416 1.45203C11.8905 1.61889 11.9614 1.83545 11.9401 2.05911L11.7451 3.96201L13.6522 4.04012C13.95 4.05077 14.2123 4.22828 14.3364 4.49809C14.4604 4.7679 14.4215 5.08387 14.2371 5.31818L13.0461 6.81281L14.6093 7.90982C14.8539 8.08023 14.978 8.37134 14.9355 8.66601C14.8929 8.96068 14.6909 9.20564 14.4108 9.30149L12.603 9.91568L13.3261 11.6837C13.4254 11.9286 13.397 12.202 13.2517 12.4186C13.1063 12.6387 12.8617 12.77 12.5994 12.77C12.5356 12.77 12.4718 12.7629 12.408 12.7452L10.5576 12.2837L10.2102 14.1617C10.1322 14.538 9.80966 14.8078 9.42682 14.8078Z" fill="#01131E"/>
<path d="M9.46583 14.8398C9.2496 14.8398 9.044 14.7511 8.89511 14.5913L7.58709 13.1996L6.27906 14.5913C6.13018 14.7511 5.92457 14.8398 5.70834 14.8398C5.32905 14.8398 5.00292 14.57 4.93203 14.1972L4.58464 12.3156L2.73426 12.7807C2.67045 12.7949 2.60664 12.8056 2.54283 12.8056C2.28052 12.8056 2.03947 12.6742 1.89059 12.4541C1.74526 12.2375 1.71689 11.9606 1.81614 11.7192L2.53929 9.94765L0.731436 9.33347C0.447851 9.23761 0.245801 8.9962 0.203264 8.69798C0.160726 8.40332 0.284799 8.1122 0.52939 7.94179L2.09265 6.84478L0.90159 5.35015C0.71726 5.11584 0.678268 4.80343 0.802336 4.53006C0.926404 4.26025 1.18872 4.08274 1.48648 4.07209L3.39359 3.99398L3.19508 2.09463C3.17026 1.87097 3.24116 1.65441 3.39359 1.48755C3.54247 1.32069 3.7587 1.22484 3.97848 1.22484C4.11672 1.22484 4.25497 1.26389 4.37549 1.33489L6.02029 2.30054L6.88167 0.596453C7.01637 0.330189 7.28578 0.16333 7.58354 0.16333C7.88131 0.16333 8.15071 0.330189 8.28541 0.596453L9.15389 2.30764L10.7951 1.33489C10.9157 1.26389 11.0539 1.22484 11.1922 1.22484C11.4155 1.22484 11.6282 1.32069 11.777 1.48755C11.9259 1.65441 11.9968 1.87097 11.9755 2.09463L11.7806 3.99753L13.6877 4.07564C13.9855 4.08629 14.2478 4.2638 14.3718 4.53361C14.4959 4.80343 14.4569 5.11939 14.2726 5.35371L13.0815 6.84834L14.6448 7.94534C14.8894 8.11575 15.0134 8.40687 14.9709 8.70153C14.9284 8.9962 14.7263 9.24116 14.4463 9.33702L12.6384 9.9512L13.3616 11.7192C13.4608 11.9642 13.4325 12.2375 13.2871 12.4541C13.1418 12.6742 12.8972 12.8056 12.6349 12.8056C12.5711 12.8056 12.5073 12.7985 12.4435 12.7807L10.5895 12.3192L10.2421 14.1972C10.1712 14.57 9.84867 14.8398 9.46583 14.8398Z" fill="#01131E"/>
<path d="M9.50483 14.8717C9.2886 14.8717 9.08301 14.7829 8.93413 14.6232L7.62609 13.2315L6.31806 14.6232C6.16918 14.7829 5.96359 14.8717 5.74735 14.8717C5.36806 14.8717 5.04194 14.6019 4.97104 14.2291L4.62365 12.3475L2.77326 12.8126C2.70945 12.8268 2.64564 12.8374 2.58184 12.8374C2.31952 12.8374 2.07848 12.7061 1.92959 12.486C1.78426 12.2694 1.7559 11.9925 1.85516 11.7511L2.5783 9.97952L0.770447 9.36534C0.486863 9.26948 0.284813 9.02807 0.242275 8.72985C0.199737 8.43519 0.323799 8.14407 0.568391 7.97366L2.13165 6.87665L0.940602 5.38203C0.756272 5.14771 0.717269 4.8353 0.841337 4.56193C0.965405 4.29212 1.22773 4.11461 1.52549 4.10396L3.4326 4.02585L3.23763 2.12295C3.21281 1.89929 3.28371 1.68273 3.43613 1.51587C3.58502 1.34901 3.80125 1.25316 4.02102 1.25316C4.15927 1.25316 4.29753 1.29221 4.41805 1.36321L6.06283 2.32886L6.92422 0.624773C7.05892 0.358509 7.32833 0.19165 7.62609 0.19165C7.92386 0.19165 8.19327 0.358509 8.32797 0.624773L9.19644 2.33596L10.8377 1.36321C10.9582 1.29221 11.0965 1.25316 11.2347 1.25316C11.458 1.25316 11.6707 1.34901 11.8196 1.51587C11.9685 1.68273 12.0394 1.89929 12.0181 2.12295L11.8231 4.02585L13.7302 4.10396C14.028 4.11461 14.2903 4.29212 14.4144 4.56193C14.5385 4.83175 14.4995 5.14771 14.3151 5.38203L13.1241 6.87665L14.6873 7.97366C14.9319 8.14407 15.056 8.43519 15.0135 8.72985C14.9709 9.02452 14.7689 9.26948 14.4888 9.36534L12.681 9.97952L13.4041 11.7475C13.5034 11.9925 13.475 12.2658 13.3297 12.4824C13.1843 12.7025 12.9398 12.8339 12.6774 12.8339C12.6136 12.8339 12.5498 12.8268 12.486 12.809L10.6321 12.3475L10.2847 14.2255C10.2103 14.6019 9.88767 14.8717 9.50483 14.8717Z" fill="#01131E"/>
<path d="M9.54385 14.9072C9.32761 14.9072 9.12201 14.8184 8.97313 14.6587L7.66509 13.267L6.35707 14.6587C6.20819 14.8184 6.00259 14.9072 5.78635 14.9072C5.40706 14.9072 5.08094 14.6374 5.01004 14.2646L4.66266 12.383L2.81227 12.8481C2.74846 12.8623 2.68465 12.8729 2.62085 12.8729C2.35853 12.8729 2.11749 12.7416 1.9686 12.5215C1.82327 12.3049 1.7949 12.028 1.89416 11.7866L2.6173 10.015L0.809447 9.40086C0.525863 9.305 0.323813 9.06359 0.281275 8.76538C0.238737 8.47071 0.36281 8.17959 0.607402 8.00919L2.17065 6.91218L0.979602 5.41755C0.795272 5.18324 0.756279 4.87082 0.880347 4.59745C1.00442 4.32764 1.26673 4.15013 1.56449 4.13948L3.4716 4.06138L3.27664 2.15848C3.25182 1.93481 3.32272 1.71825 3.47515 1.55139C3.62403 1.38453 3.84026 1.28868 4.06004 1.28868C4.19828 1.28868 4.33653 1.32773 4.45705 1.39874L6.10185 2.36439L6.96323 0.660296C7.09793 0.394032 7.36733 0.227173 7.66509 0.227173C7.96286 0.227173 8.23227 0.394032 8.36697 0.660296L9.23545 2.37149L10.8767 1.39874C10.9972 1.32773 11.1355 1.28868 11.2737 1.28868C11.497 1.28868 11.7097 1.38453 11.8586 1.55139C12.0075 1.71825 12.0784 1.93481 12.0571 2.15848L11.8621 4.06138L13.7692 4.13948C14.067 4.15013 14.3293 4.32764 14.4534 4.59745C14.5775 4.86727 14.5385 5.18324 14.3541 5.41755L13.1631 6.91218L14.7263 8.00919C14.9709 8.17959 15.095 8.47071 15.0525 8.76538C15.0099 9.06004 14.8079 9.305 14.5278 9.40086L12.72 10.015L13.4431 11.783C13.5424 12.028 13.514 12.3014 13.3687 12.5179C13.2234 12.738 12.9788 12.8694 12.7164 12.8694C12.6526 12.8694 12.5888 12.8623 12.525 12.8445L10.6746 12.383L10.3272 14.2611C10.2493 14.6338 9.92668 14.9072 9.54385 14.9072Z" fill="#01131E"/>
<path d="M9.58275 14.9392C9.36652 14.9392 9.16092 14.8504 9.01204 14.6907L7.70401 13.299L6.39598 14.6907C6.2471 14.8504 6.0415 14.9392 5.82527 14.9392C5.44597 14.9392 5.11985 14.6694 5.04896 14.2966L4.70156 12.415L2.85117 12.8801C2.78737 12.8943 2.72356 12.9049 2.65975 12.9049C2.39744 12.9049 2.15639 12.7736 2.00751 12.5535C1.86217 12.3369 1.83382 12.06 1.93307 11.8186L2.65621 10.047L0.848363 9.43284C0.564779 9.33699 0.362729 9.09557 0.320191 8.79736C0.277654 8.50269 0.401716 8.21158 0.646307 8.04117L2.20957 6.94416L1.01851 5.44953C0.834177 5.21522 0.795185 4.9028 0.919253 4.62944C1.04332 4.35962 1.30564 4.18211 1.60341 4.17146L3.51051 4.09336L3.31554 2.19046C3.29073 1.9668 3.36162 1.75023 3.51405 1.58338C3.66293 1.41652 3.87916 1.32066 4.09894 1.32066C4.23719 1.32066 4.37544 1.35971 4.49597 1.43072L6.14075 2.39637L7.00214 0.692278C7.13684 0.426014 7.40625 0.259155 7.70401 0.259155C8.00177 0.259155 8.27118 0.426014 8.40588 0.692278L9.27435 2.40347L10.9156 1.43072C11.0361 1.35971 11.1744 1.32066 11.3126 1.32066C11.5359 1.32066 11.7486 1.41652 11.8975 1.58338C12.0464 1.75023 12.1173 1.9668 12.096 2.19046L11.9011 4.09336L13.8082 4.17146C14.1059 4.18211 14.3682 4.35962 14.4923 4.62944C14.6164 4.89925 14.5774 5.21522 14.3931 5.44953L13.202 6.94416L14.7653 8.04117C15.0099 8.21158 15.1339 8.50269 15.0914 8.79736C15.0488 9.09202 14.8468 9.33699 14.5667 9.43284L12.7589 10.047L13.482 11.815C13.5813 12.06 13.5529 12.3333 13.4076 12.5499C13.2623 12.77 13.0177 12.9014 12.7554 12.9014C12.6915 12.9014 12.6277 12.8943 12.5639 12.8765L10.7135 12.415L10.3662 14.293C10.2917 14.6694 9.96559 14.9392 9.58275 14.9392Z" fill="#01131E"/>
<path d="M9.62175 14.9712C9.40552 14.9712 9.19991 14.8824 9.05103 14.7227L7.743 13.331L6.43497 14.7227C6.28609 14.8824 6.08049 14.9712 5.86426 14.9712C5.48496 14.9712 5.15884 14.7014 5.08794 14.3286L4.74055 12.447L2.89017 12.9121C2.82637 12.9263 2.76256 12.9369 2.69875 12.9369C2.43643 12.9369 2.19539 12.8056 2.04651 12.5854C1.90117 12.3689 1.8728 12.092 1.97206 11.8506L2.6952 10.079L0.88735 9.46482C0.603766 9.36897 0.401715 9.12756 0.359178 8.82934C0.31664 8.53468 0.440713 8.24356 0.685304 8.07315L2.24855 6.97614L1.0575 5.48151C0.873175 5.2472 0.834182 4.93478 0.95825 4.66142C1.08232 4.39161 1.34463 4.2141 1.64239 4.20345L3.5495 4.12534L3.35454 2.22244C3.32973 1.99878 3.40062 1.78222 3.55305 1.61536C3.70193 1.4485 3.91816 1.35264 4.13794 1.35264C4.27619 1.35264 4.41443 1.3917 4.53495 1.4627L6.17975 2.42835L7.04113 0.724261C7.17584 0.457997 7.44523 0.291138 7.743 0.291138C8.04076 0.291138 8.31017 0.457997 8.44487 0.724261L9.31335 2.43545L10.9546 1.4627C11.0751 1.3917 11.2134 1.35264 11.3516 1.35264C11.5749 1.35264 11.7876 1.4485 11.9365 1.61536C12.0854 1.78222 12.1563 1.99878 12.135 2.22244L11.9401 4.12534L13.8471 4.20345C14.1449 4.2141 14.4072 4.39161 14.5313 4.66142C14.6554 4.93123 14.6164 5.2472 14.432 5.48151L13.241 6.97614L14.8042 8.07315C15.0488 8.24356 15.1729 8.53468 15.1304 8.82934C15.0878 9.12401 14.8858 9.36897 14.6057 9.46482L12.7979 10.079L13.521 11.847C13.6203 12.092 13.5919 12.3653 13.4466 12.5819C13.3013 12.802 13.0567 12.9334 12.7943 12.9334C12.7305 12.9334 12.6667 12.9263 12.6029 12.9085L10.7525 12.447L10.4051 14.325C10.3307 14.7014 10.0046 14.9712 9.62175 14.9712Z" fill="#01131E"/>
<path d="M9.66074 15.0067C9.4445 15.0067 9.23891 14.9179 9.09003 14.7582L7.78199 13.3665L6.47396 14.7582C6.32508 14.9179 6.11949 15.0067 5.90325 15.0067C5.52396 15.0067 5.19784 14.7369 5.12694 14.3641L4.77955 12.4825L2.92916 12.9476C2.86535 12.9618 2.80154 12.9724 2.73774 12.9724C2.47542 12.9724 2.23438 12.8411 2.08549 12.621C1.94016 12.4044 1.9118 12.1275 2.01106 11.8861L2.7342 10.1145L0.926348 9.50035C0.642764 9.40449 0.440703 9.16308 0.398165 8.86486C0.355627 8.5702 0.4797 8.27908 0.724292 8.10867L2.28755 7.01166L1.09649 5.51704C0.912162 5.28272 0.873169 4.97031 0.997237 4.69694C1.12131 4.42358 1.38363 4.24962 1.68139 4.23897L3.58849 4.16086L3.39353 2.25796C3.36871 2.0343 3.43961 1.81774 3.59204 1.65088C3.74092 1.48402 3.95715 1.38817 4.17693 1.38817C4.31517 1.38817 4.45343 1.42722 4.57395 1.49822L6.21874 2.46387L7.08012 0.759783C7.21482 0.493519 7.48423 0.32666 7.78199 0.32666C8.07976 0.32666 8.34917 0.493519 8.48387 0.759783L9.35234 2.47097L10.9936 1.49822C11.1141 1.42722 11.2524 1.38817 11.3906 1.38817C11.6139 1.38817 11.8266 1.48402 11.9755 1.65088C12.1244 1.81774 12.1953 2.0343 12.174 2.25796L11.979 4.16086L13.8861 4.23897C14.1839 4.24962 14.4462 4.42713 14.5703 4.69694C14.6944 4.96676 14.6554 5.28272 14.471 5.51704L13.28 7.01166L14.8432 8.10867C15.0878 8.27908 15.2119 8.5702 15.1694 8.86486C15.1268 9.15953 14.9248 9.40449 14.6447 9.50035L12.8369 10.1145L13.56 11.8825C13.6593 12.1275 13.6309 12.4009 13.4856 12.6174C13.3402 12.8375 13.0957 12.9689 12.8333 12.9689C12.7695 12.9689 12.7057 12.9618 12.6419 12.944L10.788 12.4825L10.4406 14.3606C10.3697 14.7333 10.0436 15.0067 9.66074 15.0067Z" fill="#01131E"/>
<path d="M9.69973 15.0385C9.4835 15.0385 9.27789 14.9498 9.12901 14.79L7.82098 13.3984L6.51295 14.79C6.36407 14.9498 6.15847 15.0385 5.94224 15.0385C5.56295 15.0385 5.23682 14.7687 5.16593 14.396L4.81853 12.5144L2.96814 12.9794C2.90434 12.9936 2.84054 13.0043 2.77673 13.0043C2.51442 13.0043 2.27337 12.8729 2.12449 12.6528C1.97915 12.4363 1.95079 12.1593 2.05004 11.9179L2.77319 10.1464L0.965334 9.53221C0.68175 9.43635 0.479699 9.19494 0.437162 8.89672C0.394624 8.60206 0.518697 8.31094 0.763288 8.14053L2.32654 7.04352L1.13549 5.5489C0.951158 5.31458 0.912166 5.00217 1.03623 4.7288C1.1603 4.45899 1.42262 4.28148 1.72038 4.27083L3.62748 4.19272L3.43252 2.28982C3.40771 2.06616 3.47861 1.8496 3.63103 1.68274C3.77991 1.51588 3.99614 1.42003 4.21592 1.42003C4.35417 1.42003 4.49242 1.45908 4.61294 1.53008L6.25773 2.49573L7.11912 0.791643C7.25382 0.525379 7.52322 0.358521 7.82098 0.358521C8.11874 0.358521 8.38815 0.525379 8.52286 0.791643L9.39134 2.50283L11.0326 1.53008C11.1531 1.45908 11.2914 1.42003 11.4296 1.42003C11.6529 1.42003 11.8656 1.51588 12.0145 1.68274C12.1634 1.8496 12.2343 2.06616 12.213 2.28982L12.018 4.19272L13.9251 4.27083C14.2229 4.28148 14.4852 4.45899 14.6093 4.7288C14.7334 4.99862 14.6944 5.31458 14.51 5.5489L13.319 7.04352L14.8822 8.14053C15.1268 8.31094 15.2509 8.60206 15.2084 8.89672C15.1658 9.19139 14.9638 9.43635 14.6837 9.53221L12.8759 10.1464L13.599 11.9144C13.6983 12.1593 13.6699 12.4327 13.5246 12.6493C13.3792 12.8694 13.1346 13.0007 12.8723 13.0007C12.8085 13.0007 12.7447 12.9936 12.6809 12.9759L10.827 12.5144L10.4796 14.3924C10.4087 14.7687 10.0826 15.0385 9.69973 15.0385Z" fill="#01131E"/>
<path d="M9.73872 15.0705C9.52249 15.0705 9.3169 14.9818 9.16801 14.822L7.85998 13.4303L6.55195 14.822C6.40307 14.9818 6.19746 15.0705 5.98123 15.0705C5.60194 15.0705 5.27582 14.8007 5.20493 14.4279L4.85753 12.5463L3.00715 13.0114C2.94334 13.0256 2.87953 13.0363 2.81572 13.0363C2.55341 13.0363 2.31236 12.9049 2.16348 12.6848C2.01814 12.4682 1.98979 12.1913 2.08904 11.9499L2.81219 10.1784L1.00433 9.56419C0.72075 9.46833 0.518689 9.22692 0.476152 8.92871C0.433614 8.63404 0.557687 8.34292 0.802278 8.17252L2.36554 7.07551L1.17448 5.58088C0.990148 5.34657 0.951156 5.03415 1.07522 4.76078C1.19929 4.49097 1.46162 4.31346 1.75938 4.30281L3.66647 4.22471L3.47151 2.32181C3.4467 2.09814 3.5176 1.88158 3.67002 1.71472C3.8189 1.54786 4.03513 1.45201 4.25491 1.45201C4.39316 1.45201 4.53141 1.49106 4.65193 1.56207L6.29672 2.52772L7.15811 0.823626C7.29281 0.557362 7.56222 0.390503 7.85998 0.390503C8.15774 0.390503 8.42715 0.557362 8.56186 0.823626L9.43033 2.53482L11.0716 1.56207C11.1921 1.49106 11.3303 1.45201 11.4686 1.45201C11.6919 1.45201 11.9046 1.54786 12.0535 1.71472C12.2024 1.88158 12.2733 2.09814 12.252 2.32181L12.057 4.22471L13.9641 4.30281C14.2619 4.31346 14.5242 4.49097 14.6483 4.76078C14.7723 5.0306 14.7334 5.34657 14.549 5.58088L13.358 7.07551L14.9212 8.17252C15.1658 8.34292 15.2899 8.63404 15.2473 8.92871C15.2048 9.22337 15.0028 9.46833 14.7227 9.56419L12.9149 10.1784L13.638 11.9464C13.7373 12.1913 13.7089 12.4647 13.5636 12.6813C13.4182 12.9014 13.1736 13.0327 12.9113 13.0327C12.8475 13.0327 12.7837 13.0256 12.7199 13.0079L10.8695 12.5463L10.5221 14.4244C10.4477 14.8007 10.1216 15.0705 9.73872 15.0705Z" fill="#01131E"/>
<path d="M9.77772 15.1025C9.56149 15.1025 9.35588 15.0138 9.207 14.854L7.89897 13.4623L6.59094 14.854C6.44205 15.0138 6.23646 15.1025 6.02023 15.1025C5.64093 15.1025 5.31481 14.8327 5.24391 14.4599L4.89652 12.5783L3.04613 13.0434C2.98233 13.0576 2.91853 13.0683 2.85472 13.0683C2.59241 13.0683 2.35136 12.9369 2.20248 12.7168C2.05714 12.5002 2.02878 12.2233 2.12803 11.9819L2.85117 10.2104L1.04332 9.59617C0.759738 9.50032 0.557687 9.2589 0.51515 8.96069C0.472612 8.66247 0.596674 8.37491 0.841266 8.2045L2.40452 7.10749L1.21348 5.61286C1.02915 5.37855 0.990154 5.06613 1.11422 4.79277C1.23829 4.52295 1.5006 4.34544 1.79837 4.33479L3.70547 4.25669L3.51051 2.35379C3.4857 2.13013 3.55659 1.91356 3.70902 1.74671C3.8579 1.57985 4.07413 1.48399 4.29391 1.48399C4.43216 1.48399 4.5704 1.52304 4.69093 1.59405L6.33571 2.5597L7.1971 0.855608C7.33181 0.589344 7.60121 0.422485 7.89897 0.422485C8.19673 0.422485 8.46614 0.589344 8.60084 0.855608L9.46932 2.5668L11.1106 1.59405C11.2311 1.52304 11.3693 1.48399 11.5076 1.48399C11.7309 1.48399 11.9436 1.57985 12.0925 1.74671C12.2414 1.91356 12.3123 2.13013 12.291 2.35379L12.096 4.26024L14.0031 4.33834C14.3009 4.34899 14.5632 4.5265 14.6873 4.79632C14.8113 5.06613 14.7723 5.3821 14.588 5.61641L13.397 7.11104L14.9602 8.20805C15.2048 8.37846 15.3289 8.66957 15.2863 8.96424C15.2438 9.2589 15.0418 9.50387 14.7617 9.59972L12.9539 10.2139L13.677 11.9819C13.7763 12.2269 13.7479 12.5002 13.6026 12.7168C13.4572 12.9369 13.2126 13.0683 12.9503 13.0683C12.8865 13.0683 12.8227 13.0612 12.7589 13.0434L10.9085 12.5819L10.5611 14.4599C10.4867 14.8327 10.1606 15.1025 9.77772 15.1025Z" fill="#01131E"/>
<path d="M9.81671 15.138C9.60047 15.138 9.39488 15.0493 9.246 14.8895L7.93797 13.4978L6.62993 14.8895C6.48105 15.0493 6.27545 15.138 6.05921 15.138C5.67992 15.138 5.35381 14.8682 5.28291 14.4955L4.93552 12.6139L3.08513 13.0789C3.02132 13.0931 2.95751 13.1038 2.89371 13.1038C2.63139 13.1038 2.39035 12.9724 2.24147 12.7523C2.09613 12.5357 2.06777 12.2588 2.16703 12.0174L2.89017 10.2459L1.08232 9.63169C0.798735 9.53584 0.596674 9.29443 0.554137 8.99621C0.511599 8.70154 0.635672 8.41043 0.880263 8.24002L2.44352 7.14301L1.25246 5.64838C1.06813 5.41407 1.02914 5.10165 1.15321 4.82829C1.27728 4.55493 1.5396 4.38097 1.83736 4.37032L3.74446 4.29221L3.5495 2.38931C3.52469 2.16565 3.59558 1.94909 3.74801 1.78223C3.89689 1.61537 4.11312 1.51951 4.3329 1.51951C4.47114 1.51951 4.60939 1.55857 4.72991 1.62957L6.37471 2.59522L7.23609 0.891131C7.37079 0.624867 7.6402 0.458008 7.93797 0.458008C8.23573 0.458008 8.50513 0.624867 8.63983 0.891131L9.50831 2.60232L11.1496 1.62957C11.2701 1.55857 11.4083 1.51951 11.5466 1.51951C11.7699 1.51951 11.9826 1.61537 12.1315 1.78223C12.2803 1.94909 12.3512 2.16565 12.33 2.38931L12.135 4.29221L14.0421 4.37032C14.3399 4.38097 14.6022 4.55848 14.7263 4.82829C14.8503 5.0981 14.8113 5.41407 14.627 5.64838L13.436 7.14301L14.9992 8.24002C15.2438 8.41043 15.3679 8.70154 15.3253 8.99621C15.2828 9.29088 15.0807 9.53584 14.8007 9.63169L12.9929 10.2459L13.716 12.0139C13.8152 12.2588 13.7869 12.5322 13.6416 12.7488C13.4962 12.9689 13.2516 13.1002 12.9893 13.1002C12.9255 13.1002 12.8617 13.0931 12.7979 13.0754L10.9475 12.6139L10.6001 14.4919C10.5257 14.8647 10.1995 15.138 9.81671 15.138Z" fill="#01131E"/>
<path d="M9.85571 15.1699C9.63947 15.1699 9.43387 15.0811 9.28499 14.9214L7.97696 13.5297L6.66892 14.9214C6.52004 15.0811 6.31445 15.1699 6.09821 15.1699C5.71892 15.1699 5.3928 14.9001 5.3219 14.5273L4.97451 12.6457L3.12412 13.1108C3.06031 13.125 2.99651 13.1356 2.93271 13.1356C2.67039 13.1356 2.42935 13.0043 2.28047 12.7842C2.13513 12.5676 2.10676 12.2907 2.20602 12.0493L2.92916 10.2777L1.12131 9.66355C0.837724 9.5677 0.635674 9.32629 0.593137 9.02807C0.550599 8.73341 0.674661 8.44229 0.919252 8.27188L2.48251 7.17487L1.29146 5.68024C1.10713 5.44593 1.06814 5.13351 1.19221 4.86015C1.31628 4.59034 1.57859 4.41283 1.87635 4.40218L3.78346 4.32407L3.58849 2.42117C3.56367 2.19751 3.63458 1.98095 3.78701 1.81409C3.93589 1.64723 4.15212 1.55137 4.3719 1.55137C4.51014 1.55137 4.64839 1.59043 4.76891 1.66143L6.4137 2.62708L7.27509 0.922991C7.40979 0.656727 7.67919 0.489868 7.97696 0.489868C8.27472 0.489868 8.54413 0.656727 8.67883 0.922991L9.54731 2.63418L11.1885 1.66143C11.3091 1.59043 11.4473 1.55137 11.5856 1.55137C11.8089 1.55137 12.0216 1.64723 12.1705 1.81409C12.3193 1.98095 12.3902 2.19751 12.369 2.42117L12.174 4.32407L14.0811 4.40218C14.3789 4.41283 14.6412 4.59034 14.7653 4.86015C14.8893 5.12996 14.8503 5.44593 14.666 5.68024L13.4749 7.17487L15.0382 8.27188C15.2828 8.44229 15.4069 8.73341 15.3643 9.02807C15.3218 9.32274 15.1197 9.5677 14.8397 9.66355L13.0318 10.2777L13.755 12.0457C13.8542 12.2907 13.8259 12.5641 13.6805 12.7806C13.5352 13.0007 13.2906 13.1321 13.0283 13.1321C12.9645 13.1321 12.9007 13.125 12.8369 13.1072L10.983 12.6457L10.6356 14.5238C10.5647 14.9001 10.2385 15.1699 9.85571 15.1699Z" fill="#01131E"/>
<path d="M9.89469 15.2019C9.67846 15.2019 9.47287 15.1131 9.32399 14.9534L8.01595 13.5617L6.70792 14.9534C6.55904 15.1131 6.35343 15.2019 6.1372 15.2019C5.75791 15.2019 5.43178 14.9321 5.36089 14.5593L5.0135 12.6777L3.16312 13.1428C3.09931 13.157 3.0355 13.1676 2.97169 13.1676C2.70938 13.1676 2.46833 13.0363 2.31945 12.8162C2.17412 12.5996 2.14576 12.3227 2.24501 12.0813L2.96815 10.3097L1.16031 9.69554C0.876722 9.59968 0.674661 9.35827 0.632123 9.06005C0.589586 8.76539 0.713658 8.47427 0.95825 8.30386L2.52151 7.20686L1.33045 5.71223C1.14612 5.47791 1.10713 5.1655 1.2312 4.89213C1.35526 4.62232 1.61759 4.44481 1.91535 4.43416L3.82245 4.35605L3.62749 2.45315C3.60267 2.22949 3.67357 2.01293 3.82599 1.84607C3.97488 1.67921 4.19111 1.58336 4.41088 1.58336C4.54913 1.58336 4.68738 1.62241 4.8079 1.69341L6.45269 2.65906L7.31408 0.954974C7.44878 0.688709 7.71819 0.521851 8.01595 0.521851C8.31372 0.521851 8.58311 0.688709 8.71782 0.954974L9.5863 2.66616L11.2275 1.69341C11.3481 1.62241 11.4863 1.58336 11.6246 1.58336C11.8479 1.58336 12.0606 1.67921 12.2094 1.84607C12.3583 2.01293 12.4292 2.22949 12.408 2.45315L12.213 4.35605L14.1201 4.43416C14.4179 4.44481 14.6802 4.62232 14.8042 4.89213C14.9283 5.16195 14.8893 5.47791 14.705 5.71223L13.5139 7.20686L15.0772 8.30386C15.3218 8.47427 15.4459 8.76539 15.4033 9.06005C15.3608 9.35472 15.1587 9.59968 14.8787 9.69554L13.0708 10.3097L13.794 12.0777C13.8932 12.3227 13.8649 12.596 13.7195 12.8126C13.5742 13.0327 13.3296 13.1641 13.0673 13.1641C13.0035 13.1641 12.9397 13.157 12.8759 13.1392L11.0219 12.6777L10.6746 14.5557C10.6037 14.9321 10.2775 15.2019 9.89469 15.2019Z" fill="#01131E"/>
<path d="M9.93369 15.2374C9.71746 15.2374 9.51185 15.1486 9.36297 14.9889L8.05494 13.5972L6.74691 14.9889C6.59803 15.1486 6.39243 15.2374 6.1762 15.2374C5.79691 15.2374 5.47078 14.9676 5.39989 14.5948L5.05249 12.7132L3.2021 13.1783C3.1383 13.1925 3.0745 13.2031 3.01069 13.2031C2.74838 13.2031 2.50733 13.0718 2.35845 12.8517C2.21311 12.6351 2.18475 12.3582 2.284 12.1168L3.00714 10.3452L1.19929 9.73106C0.915709 9.6352 0.713659 9.39379 0.671121 9.09558C0.628584 8.80091 0.752646 8.50979 0.997237 8.33939L2.5605 7.24238L1.36945 5.74775C1.18512 5.51344 1.14613 5.20102 1.27019 4.92765C1.39426 4.65784 1.65657 4.48033 1.95434 4.46968L3.86144 4.39158L3.66647 2.48868C3.64166 2.26501 3.71257 2.04845 3.86499 1.88159C4.01387 1.71473 4.2301 1.61888 4.44988 1.61888C4.58813 1.61888 4.72637 1.65793 4.8469 1.72894L6.49168 2.69459L7.35308 0.990496C7.48778 0.724232 7.75718 0.557373 8.05494 0.557373C8.3527 0.557373 8.62211 0.724232 8.75681 0.990496L9.6253 2.70169L11.2665 1.72894C11.3871 1.65793 11.5253 1.61888 11.6636 1.61888C11.8869 1.61888 12.0996 1.71473 12.2484 1.88159C12.3973 2.04845 12.4682 2.26501 12.447 2.48868L12.252 4.39158L14.1591 4.46968C14.4569 4.48033 14.7192 4.65784 14.8432 4.92765C14.9673 5.19747 14.9283 5.51344 14.744 5.74775L13.5529 7.24238L15.1162 8.33939C15.3608 8.50979 15.4848 8.80091 15.4423 9.09558C15.3998 9.39024 15.1977 9.6352 14.9177 9.73106L13.1098 10.3452L13.833 12.1132C13.9322 12.3582 13.9039 12.6316 13.7585 12.8481C13.6132 13.0682 13.3686 13.1996 13.1063 13.1996C13.0425 13.1996 12.9787 13.1925 12.9149 13.1747L11.0645 12.7132L10.7171 14.5913C10.6426 14.964 10.3165 15.2374 9.93369 15.2374Z" fill="#01131E"/>
<path d="M9.97268 15.2694C9.75645 15.2694 9.55085 15.1806 9.40197 15.0209L8.09394 13.6292L6.78591 15.0209C6.63702 15.1806 6.43142 15.2694 6.21519 15.2694C5.83589 15.2694 5.50977 14.9996 5.43888 14.6268L5.09149 12.7452L3.2411 13.2103C3.1773 13.2245 3.11349 13.2351 3.04968 13.2351C2.78737 13.2351 2.54632 13.1038 2.39744 12.8837C2.2521 12.6671 2.22375 12.3902 2.323 12.1488L3.04613 10.3772L1.23829 9.76304C0.954709 9.66719 0.752648 9.42577 0.71011 9.12756C0.667572 8.82934 0.791645 8.54178 1.03624 8.37137L2.5995 7.27436L1.40844 5.77973C1.22411 5.54542 1.18511 5.233 1.30918 4.95964C1.43325 4.68627 1.69556 4.51231 1.99333 4.50166L3.90043 4.42356L3.70547 2.52066C3.68066 2.297 3.75155 2.08043 3.90398 1.91358C4.05286 1.74672 4.26909 1.65086 4.48887 1.65086C4.62712 1.65086 4.76536 1.68991 4.88589 1.76092L6.53068 2.72657L7.39206 1.02248C7.52677 0.756214 7.79618 0.589355 8.09394 0.589355C8.3917 0.589355 8.6611 0.756214 8.7958 1.02248L9.66428 2.73367L11.3055 1.76092C11.4261 1.68991 11.5643 1.65086 11.7025 1.65086C11.9259 1.65086 12.1386 1.74672 12.2874 1.91358C12.4363 2.08043 12.5072 2.297 12.4859 2.52066L12.291 4.42356L14.1981 4.50166C14.4959 4.51231 14.7582 4.68982 14.8822 4.95964C15.0063 5.22945 14.9673 5.54542 14.783 5.77973L13.5919 7.27436L15.1552 8.37137C15.3998 8.54178 15.5238 8.83289 15.4813 9.12756C15.4388 9.42222 15.2367 9.66719 14.9567 9.76304L13.1488 10.3772L13.872 12.1452C13.9712 12.3902 13.9429 12.6635 13.7975 12.8801C13.6522 13.1002 13.4076 13.2316 13.1453 13.2316C13.0815 13.2316 13.0177 13.2245 12.9539 13.2067L11.1035 12.7452L10.7561 14.6232C10.6816 14.9996 10.3555 15.2694 9.97268 15.2694Z" fill="#01131E"/>
<path d="M10.0117 15.3014C9.79545 15.3014 9.58984 15.2126 9.44096 15.0529L8.13293 13.6612L6.82489 15.0529C6.67601 15.2126 6.47042 15.3014 6.25419 15.3014C5.87489 15.3014 5.54877 15.0316 5.47787 14.6588L5.13048 12.7772L3.28009 13.2423C3.21628 13.2565 3.15249 13.2671 3.08868 13.2671C2.82636 13.2671 2.58531 13.1358 2.43643 12.9156C2.29109 12.6991 2.26273 12.4222 2.36199 12.1808L3.08513 10.4092L1.27728 9.79502C0.993696 9.69917 0.791646 9.45776 0.749108 9.15954C0.70657 8.86487 0.830632 8.57376 1.07522 8.40335L2.63848 7.30634L1.44743 5.81171C1.2631 5.5774 1.22411 5.26498 1.34818 4.99162C1.47225 4.71826 1.73456 4.5443 2.03232 4.53365L3.93943 4.45554L3.74446 2.55264C3.71965 2.32898 3.79054 2.11242 3.94297 1.94556C4.09185 1.7787 4.30809 1.68284 4.52787 1.68284C4.66612 1.68284 4.80436 1.7219 4.92488 1.7929L6.56967 2.75855L7.43106 1.05446C7.56577 0.788197 7.83516 0.621338 8.13293 0.621338C8.43069 0.621338 8.7001 0.788197 8.8348 1.05446L9.70327 2.76565L11.3445 1.7929C11.465 1.7219 11.6033 1.68284 11.7415 1.68284C11.9649 1.68284 12.1776 1.7787 12.3264 1.94556C12.4753 2.11242 12.5462 2.32898 12.5249 2.55264L12.33 4.45554L14.2371 4.53365C14.5348 4.5443 14.7972 4.72181 14.9212 4.99162C15.0453 5.26143 15.0063 5.5774 14.822 5.81171L13.6309 7.30634L15.1942 8.40335C15.4388 8.57376 15.5628 8.86487 15.5203 9.15954C15.4778 9.45421 15.2757 9.69917 14.9957 9.79502L13.1878 10.4092L13.911 12.1772C14.0102 12.4222 13.9818 12.6955 13.8365 12.9121C13.6912 13.1322 13.4466 13.2636 13.1843 13.2636C13.1205 13.2636 13.0567 13.2565 12.9929 13.2387L11.1425 12.7772L10.7951 14.6552C10.7206 15.0316 10.3945 15.3014 10.0117 15.3014Z" fill="#01131E"/>
<path d="M10.0507 15.3332C9.83443 15.3332 9.62884 15.2445 9.47996 15.0847L8.17192 13.693L6.86389 15.0847C6.71501 15.2445 6.5094 15.3332 6.29317 15.3332C5.91388 15.3332 5.58776 15.0634 5.51686 14.6906L5.16948 12.809L3.31909 13.2741C3.25528 13.2883 3.19147 13.299 3.12767 13.299C2.86535 13.299 2.6243 13.1676 2.47542 12.9475C2.33009 12.7309 2.30173 12.454 2.40099 12.2126L3.12412 10.4411L1.31628 9.82688C1.03269 9.73103 0.830631 9.48962 0.788094 9.1914C0.745556 8.89674 0.869629 8.60562 1.11422 8.43521L2.67748 7.3382L1.48642 5.84357C1.30209 5.60926 1.2631 5.29684 1.38717 5.02348C1.51123 4.75367 1.77355 4.57616 2.07131 4.56551L3.97842 4.4874L3.78346 2.5845C3.75864 2.36084 3.82954 2.14428 3.98196 1.97742C4.13085 1.81056 4.34708 1.7147 4.56685 1.7147C4.7051 1.7147 4.84335 1.75376 4.96387 1.82476L6.60866 2.79041L7.47005 1.08632C7.60475 0.820057 7.87416 0.653198 8.17192 0.653198C8.46969 0.653198 8.73908 0.820057 8.87379 1.08632L9.74227 2.79751L11.3835 1.82476C11.504 1.75376 11.6423 1.7147 11.7805 1.7147C12.0039 1.7147 12.2165 1.81056 12.3654 1.97742C12.5143 2.14428 12.5852 2.36084 12.5639 2.5845L12.369 4.4874L14.2761 4.56551C14.5738 4.57616 14.8361 4.75367 14.9602 5.02348C15.0843 5.29329 15.0453 5.60926 14.861 5.84357L13.6699 7.3382L15.2332 8.43521C15.4778 8.60562 15.6018 8.89674 15.5593 9.1914C15.5168 9.48607 15.3147 9.73103 15.0347 9.82688L13.2268 10.4411L13.9499 12.2091C14.0492 12.454 14.0208 12.7274 13.8755 12.9439C13.7302 13.1641 13.4856 13.2954 13.2233 13.2954C13.1595 13.2954 13.0957 13.2883 13.0318 13.2706L11.1779 12.809L10.8305 14.6871C10.7596 15.0634 10.4335 15.3332 10.0507 15.3332Z" fill="#01131E"/>
<path d="M10.0932 15.3687C9.87697 15.3687 9.67137 15.28 9.52249 15.1202L8.21446 13.7286L6.90643 15.1202C6.75755 15.28 6.55194 15.3687 6.33571 15.3687C5.95641 15.3687 5.6303 15.0989 5.55941 14.7262L5.21201 12.8446L3.36162 13.3096C3.29782 13.3238 3.23401 13.3345 3.1702 13.3345C2.90789 13.3345 2.66684 13.2031 2.51796 12.983C2.37262 12.7665 2.34427 12.4895 2.44352 12.2481L3.16666 10.4766L1.35881 9.86241C1.07523 9.76655 0.873168 9.52514 0.830631 9.22692C0.788093 8.93226 0.912166 8.64114 1.15676 8.47073L2.72002 7.37373L1.52896 5.8791C1.34463 5.64478 1.30563 5.33237 1.4297 5.059C1.55377 4.78919 1.81609 4.61168 2.11386 4.60103L4.02095 4.52292L3.82599 2.62002C3.80118 2.39636 3.87207 2.1798 4.0245 2.01294C4.17338 1.84608 4.38961 1.75023 4.60939 1.75023C4.74764 1.75023 4.88588 1.78928 5.00641 1.86028L6.6512 2.82593L7.51259 1.12184C7.64729 0.85558 7.9167 0.688721 8.21446 0.688721C8.51222 0.688721 8.78163 0.85558 8.91633 1.12184L9.7848 2.83303L11.4261 1.86028C11.5466 1.78928 11.6848 1.75023 11.8231 1.75023C12.0464 1.75023 12.2591 1.84608 12.408 2.01294C12.5568 2.1798 12.6277 2.39636 12.6065 2.62002L12.4115 4.52292L14.3186 4.60103C14.6164 4.61168 14.8787 4.78919 15.0028 5.059C15.1268 5.32882 15.0878 5.64478 14.9035 5.8791L13.7125 7.37373L15.2757 8.47073C15.5203 8.64114 15.6444 8.93226 15.6018 9.22692C15.5593 9.52159 15.3572 9.76655 15.0772 9.86241L13.2694 10.4766L13.9925 12.2446C14.0917 12.4895 14.0634 12.7629 13.918 12.9795C13.7727 13.1996 13.5281 13.3309 13.2658 13.3309C13.202 13.3309 13.1382 13.3238 13.0744 13.3061L11.2205 12.8446L10.8731 14.7226C10.7986 15.0954 10.4725 15.3687 10.0932 15.3687Z" fill="#01131E"/>
<path d="M10.1322 15.4007C9.91597 15.4007 9.71037 15.312 9.56148 15.1522L8.25345 13.7605L6.94542 15.1522C6.79654 15.312 6.59094 15.4007 6.37471 15.4007C5.99542 15.4007 5.66929 15.1309 5.5984 14.7581L5.251 12.8765L3.40061 13.3416C3.33681 13.3558 3.27301 13.3665 3.2092 13.3665C2.94689 13.3665 2.70584 13.2351 2.55696 13.015C2.41162 12.7984 2.38326 12.5215 2.48251 12.2801L3.20565 10.5086L1.3978 9.89439C1.11422 9.79853 0.912169 9.55712 0.869632 9.25891C0.827094 8.96424 0.951156 8.67312 1.19575 8.50272L2.75901 7.40571L1.56796 5.91108C1.38363 5.67677 1.34464 5.36435 1.4687 5.09099C1.59277 4.82117 1.85508 4.64366 2.15285 4.63301L4.05995 4.55491L3.86499 2.65201C3.84018 2.42834 3.91108 2.21178 4.0635 2.04492C4.21238 1.87806 4.42861 1.78221 4.64839 1.78221C4.78664 1.78221 4.92488 1.82126 5.04541 1.89227L6.69019 2.85792L7.55159 1.15383C7.68629 0.887562 7.95569 0.720703 8.25345 0.720703C8.55121 0.720703 8.82062 0.887562 8.95533 1.15383L9.82381 2.86502L11.465 1.89227C11.5856 1.82126 11.7238 1.78221 11.8621 1.78221C12.0854 1.78221 12.2981 1.87806 12.447 2.04492C12.5958 2.21178 12.6667 2.42834 12.6455 2.65201L12.4505 4.55491L14.3576 4.63301C14.6554 4.64366 14.9177 4.82117 15.0418 5.09099C15.1658 5.3608 15.1268 5.67677 14.9425 5.91108L13.7514 7.40571L15.3147 8.50272C15.5593 8.67312 15.6834 8.96424 15.6408 9.25891C15.5983 9.55357 15.3962 9.79853 15.1162 9.89439L13.3083 10.5086L14.0315 12.2766C14.1307 12.5215 14.1024 12.7949 13.957 13.0115C13.8117 13.2316 13.5671 13.3629 13.3048 13.3629C13.241 13.3629 13.1772 13.3558 13.1134 13.3381L11.263 12.8765L10.9156 14.7546C10.8376 15.1309 10.5115 15.4007 10.1322 15.4007Z" fill="#01131E"/>
<path d="M10.1712 15.4327C9.95495 15.4327 9.74936 15.344 9.60048 15.1842L8.29245 13.7925L6.98441 15.1842C6.83553 15.344 6.62993 15.4327 6.4137 15.4327C6.0344 15.4327 5.70829 15.1629 5.63739 14.7901L5.29 12.9085L3.43961 13.3736C3.3758 13.3878 3.312 13.3985 3.24819 13.3985C2.98587 13.3985 2.74483 13.2671 2.59595 13.047C2.45061 12.8304 2.42225 12.5535 2.52151 12.3121L3.24465 10.5406L1.4368 9.92637C1.15322 9.83052 0.951155 9.5891 0.908617 9.29089C0.86608 8.99267 0.990152 8.70511 1.23474 8.5347L2.798 7.43769L1.60694 5.94306C1.42261 5.70875 1.38362 5.39633 1.50769 5.12297C1.63176 4.8496 1.89408 4.67564 2.19184 4.66499L4.09894 4.58689L3.90398 2.68399C3.87917 2.46033 3.95006 2.24376 4.10249 2.07691C4.25137 1.91005 4.4676 1.81419 4.68738 1.81419C4.82563 1.81419 4.96387 1.85324 5.08439 1.92425L6.72919 2.8899L7.59057 1.18581C7.72527 0.919544 7.99468 0.752686 8.29245 0.752686C8.59021 0.752686 8.85961 0.919544 8.99431 1.18581L9.86279 2.897L11.504 1.92425C11.6246 1.85324 11.7628 1.81419 11.9011 1.81419C12.1244 1.81419 12.3371 1.91005 12.4859 2.07691C12.6348 2.24376 12.7057 2.46033 12.6845 2.68399L12.4895 4.58689L14.3966 4.66499C14.6944 4.67564 14.9567 4.85315 15.0807 5.12297C15.2048 5.39278 15.1658 5.70875 14.9815 5.94306L13.7904 7.43769L15.3537 8.5347C15.5983 8.70511 15.7224 8.99622 15.6798 9.29089C15.6373 9.58555 15.4352 9.83052 15.1552 9.92637L13.3473 10.5406L14.0705 12.3085C14.1697 12.5535 14.1414 12.8269 13.996 13.0434C13.8507 13.2635 13.6061 13.3949 13.3438 13.3949C13.28 13.3949 13.2162 13.3878 13.1524 13.3701L11.302 12.9085L10.9546 14.7866C10.8766 15.1629 10.5505 15.4327 10.1712 15.4327Z" fill="#01131E"/>
<path d="M10.2102 15.4681C9.99395 15.4681 9.78835 15.3794 9.63947 15.2196L8.33144 13.8279L7.0234 15.2196C6.87452 15.3794 6.66893 15.4681 6.45269 15.4681C6.0734 15.4681 5.74728 15.1983 5.67638 14.8255L5.32899 12.9439L3.4786 13.409C3.41479 13.4232 3.35099 13.4339 3.28719 13.4339C3.02487 13.4339 2.78383 13.3025 2.63495 13.0824C2.48961 12.8658 2.46124 12.5889 2.5605 12.3475L3.28364 10.576L1.47579 9.96177C1.1922 9.86592 0.990154 9.6245 0.947616 9.32629C0.905079 9.03162 1.02914 8.74051 1.27373 8.5701L2.83699 7.47309L1.64594 5.97846C1.46161 5.74415 1.42262 5.43173 1.54669 5.15837C1.67076 4.885 1.93307 4.71104 2.23083 4.70039L4.13794 4.62229L3.94297 2.71939C3.91815 2.49573 3.98906 2.27916 4.14149 2.11231C4.29037 1.94545 4.5066 1.84959 4.72638 1.84959C4.86462 1.84959 5.00287 1.88864 5.12339 1.95965L6.76818 2.9253L7.62957 1.22121C7.76427 0.954945 8.03367 0.788086 8.33144 0.788086C8.6292 0.788086 8.89861 0.954945 9.03331 1.22121L9.90179 2.9324L11.543 1.95965C11.6635 1.88864 11.8018 1.84959 11.9401 1.84959C12.1634 1.84959 12.3761 1.94545 12.5249 2.11231C12.6738 2.27916 12.7447 2.49573 12.7235 2.71939L12.5285 4.62229L14.4356 4.70039C14.7333 4.71104 14.9957 4.88855 15.1197 5.15837C15.2438 5.42818 15.2048 5.74415 15.0205 5.97846L13.8294 7.47309L15.3927 8.5701C15.6373 8.74051 15.7613 9.03162 15.7188 9.32629C15.6763 9.62095 15.4742 9.86592 15.1942 9.96177L13.3863 10.576L14.1095 12.3439C14.2087 12.5889 14.1804 12.8623 14.035 13.0788C13.8897 13.2989 13.6451 13.4303 13.3828 13.4303C13.319 13.4303 13.2552 13.4232 13.1914 13.4055L11.3374 12.9439L10.99 14.822C10.9156 15.1947 10.5895 15.4681 10.2102 15.4681Z" fill="#01131E"/>
<path d="M10.2492 15.5001C10.0329 15.5001 9.82735 15.4113 9.67847 15.2516L8.37043 13.8599L7.0624 15.2516C6.91352 15.4113 6.70792 15.5001 6.49168 15.5001C6.11239 15.5001 5.78627 15.2303 5.71537 14.8575L5.36799 12.9759L3.5176 13.441C3.45379 13.4552 3.38998 13.4658 3.32618 13.4658C3.06386 13.4658 2.82282 13.3345 2.67393 13.1144C2.5286 12.8978 2.50024 12.6209 2.5995 12.3795L3.32263 10.6079L1.51479 9.99375C1.2312 9.8979 1.02914 9.65649 0.986605 9.35827C0.944067 9.06361 1.06814 8.77249 1.31273 8.60208L2.87599 7.50507L1.68493 6.01044C1.5006 5.77613 1.46161 5.46371 1.58568 5.19035C1.70975 4.92054 1.97207 4.74303 2.26983 4.73238L4.17693 4.65427L3.98197 2.75137C3.95715 2.52771 4.02805 2.31115 4.18048 2.14429C4.32936 1.97743 4.54559 1.88157 4.76537 1.88157C4.90361 1.88157 5.04186 1.92063 5.16238 1.99163L6.80718 2.95728L7.66856 1.25319C7.80326 0.986927 8.07267 0.820068 8.37043 0.820068C8.6682 0.820068 8.9376 0.986927 9.0723 1.25319L9.94078 2.96438L11.582 1.99163C11.7025 1.92063 11.8408 1.88157 11.979 1.88157C12.2024 1.88157 12.415 1.97743 12.5639 2.14429C12.7128 2.31115 12.7837 2.52771 12.7624 2.75137L12.5675 4.65427L14.4746 4.73238C14.7723 4.74303 15.0347 4.92054 15.1587 5.19035C15.2828 5.46016 15.2438 5.77613 15.0595 6.01044L13.8684 7.50507L15.4317 8.60208C15.6763 8.77249 15.8003 9.06361 15.7578 9.35827C15.7153 9.65294 15.5132 9.8979 15.2332 9.99375L13.4253 10.6079L14.1485 12.3759C14.2477 12.6209 14.2194 12.8943 14.074 13.1108C13.9287 13.3309 13.6841 13.4623 13.4218 13.4623C13.358 13.4623 13.2942 13.4552 13.2304 13.4374L11.3764 12.9759L11.029 14.854C10.9546 15.2303 10.6285 15.5001 10.2492 15.5001Z" fill="#01131E"/>
<path d="M10.2882 15.5321C10.0719 15.5321 9.86634 15.4433 9.71745 15.2836L8.40942 13.8919L7.10139 15.2836C6.95251 15.4433 6.74691 15.5321 6.53068 15.5321C6.15139 15.5321 5.82526 15.2623 5.75437 14.8895L5.40697 13.0079L3.55659 13.473C3.49278 13.4872 3.42898 13.4978 3.36517 13.4978C3.10286 13.4978 2.86181 13.3665 2.71293 13.1464C2.5676 12.9298 2.53923 12.6529 2.63848 12.4115L3.36163 10.6399L1.55378 10.0257C1.27019 9.92988 1.06814 9.68847 1.0256 9.39025C0.983065 9.09559 1.10713 8.80447 1.35172 8.63406L2.91498 7.53706L1.72393 6.04243C1.5396 5.80811 1.50061 5.4957 1.62468 5.22233C1.74874 4.95252 2.01106 4.77501 2.30882 4.76436L4.21593 4.68625L4.02095 2.78335C3.99614 2.55969 4.06705 2.34313 4.21947 2.17627C4.36836 2.00941 4.58459 1.91356 4.80436 1.91356C4.94261 1.91356 5.08086 1.95261 5.20138 2.02361L6.84616 2.98926L7.70756 1.28517C7.84226 1.01891 8.11166 0.852051 8.40942 0.852051C8.70719 0.852051 8.97659 1.01891 9.1113 1.28517L9.97978 2.99636L11.621 2.02361C11.7415 1.95261 11.8798 1.91356 12.018 1.91356C12.2414 1.91356 12.454 2.00941 12.6029 2.17627C12.7518 2.34313 12.8227 2.55969 12.8014 2.78335L12.6065 4.68625L14.5136 4.76436C14.8113 4.77501 15.0736 4.95252 15.1977 5.22233C15.3218 5.49215 15.2828 5.80811 15.0985 6.04243L13.9074 7.53706L15.4707 8.63406C15.7153 8.80447 15.8393 9.09559 15.7968 9.39025C15.7543 9.68492 15.5522 9.92988 15.2722 10.0257L13.4643 10.6399L14.1875 12.4079C14.2867 12.6529 14.2583 12.9262 14.113 13.1428C13.9677 13.3629 13.7231 13.4943 13.4608 13.4943C13.397 13.4943 13.3332 13.4872 13.2694 13.4694L11.4154 13.0079L11.068 14.8859C10.9936 15.2623 10.6675 15.5321 10.2882 15.5321Z" fill="#01131E"/>
<path d="M10.3272 15.5641C10.1109 15.5641 9.90533 15.4753 9.75645 15.3155L8.44842 13.9239L7.14039 15.3155C6.9915 15.4753 6.7859 15.5641 6.56967 15.5641C6.19037 15.5641 5.86425 15.2942 5.79335 14.9215L5.44597 13.0399L3.59558 13.505C3.53178 13.5192 3.46797 13.5298 3.40416 13.5298C3.14185 13.5298 2.9008 13.3984 2.75192 13.1783C2.60658 12.9618 2.57823 12.6849 2.67748 12.4434L3.40061 10.6719L1.59277 10.0577C1.30919 9.96186 1.10713 9.72045 1.06459 9.42224C1.02205 9.12402 1.14612 8.83645 1.39072 8.66605L2.95397 7.56904L1.76292 6.07441C1.57859 5.8401 1.53959 5.52768 1.66366 5.25432C1.78773 4.9845 2.05004 4.80699 2.34781 4.79634L4.25491 4.71824L4.05995 2.81534C4.03514 2.59167 4.10603 2.37511 4.25846 2.20825C4.40734 2.04139 4.62357 1.94554 4.84335 1.94554C4.9816 1.94554 5.11984 1.98459 5.24037 2.0556L6.88516 3.02125L7.74654 1.31716C7.88125 1.05089 8.15065 0.884033 8.44842 0.884033C8.74618 0.884033 9.01558 1.05089 9.15028 1.31716L10.0188 3.02835L11.66 2.0556C11.7805 1.98459 11.9188 1.94554 12.057 1.94554C12.2803 1.94554 12.493 2.04139 12.6419 2.20825C12.7908 2.37511 12.8617 2.59167 12.8404 2.81534L12.6455 4.71824L14.5526 4.79634C14.8503 4.80699 15.1126 4.9845 15.2367 5.25432C15.3608 5.52413 15.3218 5.8401 15.1375 6.07441L13.9464 7.56904L15.5097 8.66605C15.7542 8.83645 15.8783 9.12757 15.8358 9.42224C15.7932 9.7169 15.5912 9.96186 15.3111 10.0577L13.5033 10.6719L14.2264 12.4399C14.3257 12.6849 14.2973 12.9582 14.152 13.1748C14.0067 13.3949 13.7621 13.5263 13.4998 13.5263C13.436 13.5263 13.3721 13.5192 13.3083 13.5014L11.458 13.0399L11.1106 14.9179C11.0326 15.2942 10.7065 15.5641 10.3272 15.5641Z" fill="#01131E"/>
<path d="M10.3662 15.5996C10.1499 15.5996 9.94432 15.5108 9.79544 15.3511L8.48741 13.9594L7.17937 15.3511C7.03049 15.5108 6.8249 15.5996 6.60867 15.5996C6.22937 15.5996 5.90325 15.3298 5.83235 14.957L5.48496 13.0754L3.63457 13.5405C3.57077 13.5547 3.50697 13.5653 3.44316 13.5653C3.18085 13.5653 2.93979 13.434 2.79091 13.2139C2.64557 12.9973 2.61722 12.7204 2.71647 12.479L3.43961 10.7074L1.63176 10.0932C1.34818 9.99739 1.14613 9.75597 1.10359 9.45776C1.06105 9.16309 1.18511 8.87198 1.4297 8.70157L2.99296 7.60456L1.80192 6.10993C1.61759 5.87562 1.57859 5.5632 1.70266 5.28984C1.82673 5.01647 2.08904 4.84251 2.38681 4.83186L4.29391 4.75376L4.09894 2.85086C4.07413 2.6272 4.14502 2.41063 4.29745 2.24378C4.44633 2.07692 4.66257 1.98106 4.88235 1.98106C5.0206 1.98106 5.15884 2.02011 5.27937 2.09112L6.92415 3.05677L7.78554 1.35268C7.92025 1.08641 8.18964 0.919556 8.48741 0.919556C8.78517 0.919556 9.05458 1.08641 9.18928 1.35268L10.0578 3.06387L11.699 2.09112C11.8195 2.02011 11.9578 1.98106 12.096 1.98106C12.3193 1.98106 12.532 2.07692 12.6809 2.24378C12.8298 2.41063 12.9007 2.6272 12.8794 2.85086L12.6845 4.75376L14.5916 4.83186C14.8893 4.84251 15.1516 5.02002 15.2757 5.28984C15.3998 5.55965 15.3608 5.87562 15.1764 6.10993L13.9854 7.60456L15.5487 8.70157C15.7933 8.87198 15.9173 9.16309 15.8748 9.45776C15.8322 9.75242 15.6302 9.99739 15.3502 10.0932L13.5423 10.7074L14.2654 12.4754C14.3647 12.7204 14.3363 12.9937 14.191 13.2103C14.0457 13.4304 13.8011 13.5618 13.5388 13.5618C13.4749 13.5618 13.4111 13.5547 13.3473 13.5369L11.497 13.0754L11.1496 14.9534C11.0716 15.3262 10.7455 15.5996 10.3662 15.5996Z" fill="#01131E"/>
<path d="M10.4051 15.6314C10.1889 15.6314 9.98332 15.5427 9.83444 15.3829L8.52641 13.9913L7.21837 15.3829C7.06949 15.5427 6.86389 15.6314 6.64765 15.6314C6.26836 15.6314 5.94224 15.3616 5.87134 14.9889L5.52396 13.1073L3.67357 13.5723C3.60976 13.5865 3.54595 13.5972 3.48215 13.5972C3.21983 13.5972 2.97879 13.4658 2.82991 13.2457C2.68457 13.0292 2.65621 12.7522 2.75547 12.5108L3.4786 10.7393L1.67076 10.1251C1.38718 10.0292 1.18511 9.78783 1.14258 9.48962C1.10004 9.19495 1.22411 8.90384 1.4687 8.73343L3.03196 7.63642L1.8409 6.14179C1.65657 5.90748 1.61758 5.59506 1.74165 5.3217C1.86572 5.05188 2.12803 4.87437 2.42579 4.86372L4.3329 4.78562L4.13794 2.88272C4.11313 2.65906 4.18402 2.44249 4.33645 2.27564C4.48533 2.10878 4.70156 2.01292 4.92134 2.01292C5.05958 2.01292 5.19783 2.05197 5.31835 2.12298L6.96315 3.08863L7.82453 1.38454C7.95923 1.11827 8.22864 0.951416 8.52641 0.951416C8.82417 0.951416 9.09357 1.11827 9.22827 1.38454L10.0968 3.09573L11.738 2.12298C11.8585 2.05197 11.9968 2.01292 12.135 2.01292C12.3583 2.01292 12.571 2.10878 12.7199 2.27564C12.8688 2.44249 12.9397 2.65906 12.9184 2.88272L12.7234 4.78562L14.6306 4.86372C14.9283 4.87437 15.1906 5.05188 15.3147 5.3217C15.4388 5.59151 15.3998 5.90748 15.2154 6.14179L14.0244 7.63642L15.5876 8.73343C15.8322 8.90384 15.9563 9.19495 15.9138 9.48962C15.8712 9.78428 15.6692 10.0292 15.3891 10.1251L13.5813 10.7393L14.3044 12.5073C14.4037 12.7522 14.3753 13.0256 14.23 13.2422C14.0847 13.4623 13.8401 13.5936 13.5777 13.5936C13.5139 13.5936 13.4501 13.5865 13.3863 13.5688L11.5324 13.1073L11.185 14.9853C11.1106 15.3616 10.7844 15.6314 10.4051 15.6314Z" fill="#01131E"/>
<path d="M10.4441 15.6634C10.2279 15.6634 10.0223 15.5747 9.87343 15.4149L8.56539 14.0232L7.25736 15.4149C7.10848 15.5747 6.90289 15.6634 6.68665 15.6634C6.30736 15.6634 5.98124 15.3936 5.91034 15.0208L5.56295 13.1392L3.71256 13.6043C3.64875 13.6185 3.58495 13.6292 3.52115 13.6292C3.25883 13.6292 3.01777 13.4978 2.86889 13.2777C2.72356 13.0611 2.6952 12.7842 2.79446 12.5428L3.5176 10.7713L1.70975 10.1571C1.42616 10.0612 1.22411 9.81982 1.18157 9.5216C1.13904 9.22694 1.2631 8.93582 1.50769 8.76541L3.07095 7.6684L1.8799 6.17377C1.69557 5.93946 1.65658 5.62704 1.78065 5.35368C1.90472 5.08387 2.16703 4.90636 2.46479 4.89571L4.3719 4.8176L4.17693 2.9147C4.15211 2.69104 4.22301 2.47448 4.37543 2.30762C4.52432 2.14076 4.74056 2.0449 4.96034 2.0449C5.09858 2.0449 5.23683 2.08396 5.35735 2.15496L7.00213 3.12061L7.86353 1.41652C7.99823 1.15026 8.26763 0.983398 8.56539 0.983398C8.86316 0.983398 9.13257 1.15026 9.26727 1.41652L10.1357 3.12771L11.777 2.15496C11.8975 2.08396 12.0358 2.0449 12.174 2.0449C12.3973 2.0449 12.61 2.14076 12.7589 2.30762C12.9078 2.47448 12.9787 2.69104 12.9574 2.9147L12.7624 4.8176L14.6695 4.89571C14.9673 4.90636 15.2296 5.08387 15.3537 5.35368C15.4778 5.62349 15.4388 5.93946 15.2544 6.17377L14.0634 7.6684L15.6266 8.76541C15.8712 8.93582 15.9953 9.22694 15.9528 9.5216C15.9102 9.81627 15.7082 10.0612 15.4281 10.1571L13.6203 10.7713L14.3434 12.5393C14.4427 12.7842 14.4143 13.0576 14.269 13.2741C14.1236 13.4943 13.8791 13.6256 13.6167 13.6256C13.5529 13.6256 13.4891 13.6185 13.4253 13.6008L11.5714 13.1392L11.224 15.0173C11.1496 15.3936 10.8234 15.6634 10.4441 15.6634Z" fill="#01131E"/>
<path d="M10.4831 15.699C10.2669 15.699 10.0613 15.6102 9.91242 15.4504L8.60439 14.0588L7.29636 15.4504C7.14748 15.6102 6.94187 15.699 6.72564 15.699C6.34635 15.699 6.02022 15.4291 5.94933 15.0564L5.60194 13.1748L3.75156 13.6398C3.68775 13.654 3.62394 13.6647 3.56013 13.6647C3.29782 13.6647 3.05677 13.5333 2.90789 13.3132C2.76255 13.0967 2.7342 12.8197 2.83345 12.5783L3.55659 10.8068L1.74875 10.1926C1.46516 10.0968 1.2631 9.85534 1.22056 9.55712C1.17802 9.26246 1.3021 8.97134 1.54669 8.80093L3.10995 7.70393L1.91889 6.2093C1.73456 5.97498 1.69557 5.66257 1.81963 5.3892C1.9437 5.11939 2.20602 4.94188 2.50378 4.93123L4.41088 4.85312L4.21592 2.95022C4.19111 2.72656 4.26201 2.51 4.41443 2.34314C4.56331 2.17628 4.77955 2.08043 4.99932 2.08043C5.13757 2.08043 5.27582 2.11948 5.39634 2.19048L7.04113 3.15613L7.90252 1.45204C8.03722 1.18578 8.30663 1.01892 8.60439 1.01892C8.90216 1.01892 9.17155 1.18578 9.30626 1.45204L10.1747 3.16323L11.816 2.19048C11.9365 2.11948 12.0748 2.08043 12.213 2.08043C12.4363 2.08043 12.649 2.17628 12.7979 2.34314C12.9468 2.51 13.0177 2.72656 12.9964 2.95022L12.8014 4.85312L14.7085 4.93123C15.0063 4.94188 15.2686 5.11939 15.3927 5.3892C15.5168 5.65902 15.4778 5.97498 15.2934 6.2093L14.1024 7.70393L15.6656 8.80093C15.9102 8.97134 16.0343 9.26246 15.9918 9.55712C15.9492 9.85179 15.7472 10.0968 15.4671 10.1926L13.6593 10.8068L14.3824 12.5748C14.4817 12.8197 14.4533 13.0931 14.308 13.3097C14.1626 13.5298 13.918 13.6611 13.6557 13.6611C13.5919 13.6611 13.5281 13.654 13.4643 13.6363L11.6139 13.1748L11.2665 15.0528C11.1885 15.4256 10.8624 15.699 10.4831 15.699Z" fill="#01131E"/>
<path d="M14.2087 7.77178L12.5958 6.63927C12.4221 6.51857 12.3902 6.27715 12.5214 6.11384L13.7479 4.57306C13.9358 4.33875 13.7763 3.99083 13.4785 3.98018L11.5111 3.89853C11.302 3.89143 11.1425 3.70682 11.1637 3.49736L11.3658 1.53765C11.3977 1.23944 11.0751 1.03352 10.8163 1.18618L9.11838 2.18379C8.93759 2.29029 8.70364 2.22284 8.60793 2.03468L7.71819 0.277335C7.58349 0.0110707 7.20065 0.0110707 7.06595 0.277335L6.1762 2.03468C6.08049 2.22284 5.84653 2.29029 5.66574 2.18379L3.96778 1.18618C3.70901 1.03352 3.38998 1.23944 3.41834 1.53765L3.6204 3.49736C3.64167 3.70682 3.48215 3.89143 3.273 3.89853L1.30564 3.98018C1.00788 3.99083 0.848359 4.33875 1.03623 4.57306L2.26273 6.11384C2.39389 6.27715 2.35844 6.51857 2.18829 6.63927L0.575403 7.77178C0.330811 7.94219 0.383987 8.32206 0.667571 8.41792L2.53214 9.04985C2.73065 9.1173 2.83345 9.34097 2.75192 9.53268L2.00751 11.3575C1.89407 11.6344 2.14221 11.922 2.43289 11.8509L4.34353 11.3717C4.54913 11.322 4.75118 11.4533 4.79018 11.6592L5.14821 13.5976C5.20138 13.8923 5.56649 13.9988 5.77208 13.7823L7.12265 12.3444C7.26799 12.1918 7.50904 12.1918 7.65437 12.3444L9.00495 13.7823C9.21055 13.9988 9.57566 13.8923 9.62883 13.5976L9.98686 11.6592C10.0259 11.4533 10.2315 11.322 10.4335 11.3717L12.3442 11.8509C12.6348 11.922 12.883 11.6344 12.7695 11.3575L12.0251 9.53268C11.9471 9.33742 12.0464 9.1173 12.2449 9.04985L14.1095 8.41792C14.4001 8.31851 14.4533 7.94219 14.2087 7.77178Z" fill="#FEDE65"/>
<path d="M12.3385 7.65557L11.149 6.84189C11.0209 6.75517 10.9974 6.58172 11.0941 6.46439L11.9986 5.35739C12.1372 5.18904 12.0196 4.93907 11.8 4.93142L10.3491 4.87275C10.1949 4.86765 10.0772 4.73502 10.0929 4.58452L10.2419 3.17654C10.2655 2.96228 10.0276 2.81434 9.83674 2.92402L8.58456 3.64077C8.45124 3.71729 8.2787 3.66882 8.20812 3.53364L7.55197 2.27104C7.45264 2.07974 7.17031 2.07974 7.07097 2.27104L6.41482 3.53364C6.34424 3.66882 6.1717 3.71729 6.03838 3.64077L4.7862 2.92402C4.59537 2.81434 4.3601 2.96228 4.38101 3.17654L4.53002 4.58452C4.5457 4.73502 4.42806 4.86765 4.27383 4.87275L2.82298 4.93142C2.60339 4.93907 2.48575 5.18904 2.6243 5.35739L3.5288 6.46439C3.62552 6.58172 3.59938 6.75517 3.4739 6.84189L2.28446 7.65557C2.10408 7.778 2.1433 8.05092 2.35243 8.11979L3.72747 8.57382C3.87387 8.62228 3.94968 8.78298 3.88955 8.92071L3.34058 10.2318C3.25692 10.4307 3.43992 10.6373 3.65428 10.5863L5.0633 10.242C5.21492 10.2063 5.36393 10.3006 5.39268 10.4486L5.65672 11.8413C5.69593 12.053 5.96518 12.1295 6.1168 11.9739L7.11279 10.9409C7.21997 10.8312 7.39773 10.8312 7.50491 10.9409L8.50091 11.9739C8.65253 12.1295 8.92178 12.053 8.961 11.8413L9.22503 10.4486C9.25378 10.3006 9.40541 10.2063 9.55441 10.242L10.9634 10.5863C11.1778 10.6373 11.3608 10.4307 11.2771 10.2318L10.7282 8.92071C10.6707 8.78043 10.7438 8.62228 10.8902 8.57382L12.2653 8.11979C12.4796 8.04837 12.5189 7.778 12.3385 7.65557Z" fill="#01131E"/>
<path d="M10.9517 7.49447L10.0903 6.91328C9.99758 6.85133 9.98055 6.72744 10.0506 6.64363L10.7056 5.85291C10.8059 5.73267 10.7207 5.55412 10.5617 5.54865L9.51108 5.50675C9.39939 5.5031 9.31421 5.40836 9.32557 5.30087L9.43347 4.29517C9.4505 4.14212 9.27824 4.03645 9.14005 4.1148L8.2333 4.62676C8.13676 4.68142 8.01182 4.6468 7.96071 4.55024L7.48557 3.64838C7.41364 3.51174 7.20919 3.51174 7.13726 3.64838L6.66211 4.55024C6.611 4.6468 6.48606 4.68142 6.38952 4.62676L5.48277 4.1148C5.34458 4.03645 5.17421 4.14212 5.18936 4.29517L5.29726 5.30087C5.30862 5.40836 5.22343 5.5031 5.11174 5.50675L4.06113 5.54865C3.90211 5.55412 3.81693 5.73267 3.91726 5.85291L4.57223 6.64363C4.64228 6.72744 4.62335 6.85133 4.53248 6.91328L3.67116 7.49447C3.54055 7.58192 3.56894 7.77687 3.72038 7.82606L4.7161 8.15037C4.82211 8.18498 4.87701 8.29976 4.83347 8.39815L4.43594 9.33462C4.37536 9.47673 4.50787 9.62431 4.6631 9.58787L5.68343 9.34191C5.79322 9.3164 5.90112 9.38381 5.92195 9.48948L6.11314 10.4843C6.14154 10.6355 6.33651 10.6901 6.44631 10.579L7.16754 9.84112C7.24515 9.76277 7.37388 9.76277 7.45149 9.84112L8.17273 10.579C8.28253 10.6901 8.4775 10.6355 8.5059 10.4843L8.69709 9.48948C8.71791 9.38381 8.82771 9.3164 8.93561 9.34191L9.95594 9.58787C10.1112 9.62431 10.2437 9.47673 10.1831 9.33462L9.78557 8.39815C9.74392 8.29794 9.79693 8.18498 9.90293 8.15037L10.8987 7.82606C11.0539 7.77505 11.0823 7.58192 10.9517 7.49447Z" fill="#F94A29"/>
</svg>
