<svg width="16" height="16" viewBox="0 0 16 16" fill="none" xmlns="http://www.w3.org/2000/svg">
<path d="M9.27081 14.6765C9.05458 14.6765 8.84898 14.5877 8.7001 14.428L7.39206 13.0363L6.08403 14.428C5.93515 14.5877 5.72955 14.6765 5.51332 14.6765C5.13403 14.6765 4.80791 14.4067 4.73701 14.0339L4.38961 12.1523L2.53923 12.6174C2.47542 12.6316 2.41161 12.6422 2.34781 12.6422C2.08549 12.6422 1.84444 12.5109 1.69556 12.2908C1.55023 12.0742 1.52187 11.7973 1.62112 11.5559L2.34427 9.78432L0.536416 9.17014C0.252832 9.07428 0.0507819 8.83287 0.00824429 8.53465C-0.0342933 8.23999 0.0897687 7.94887 0.33436 7.77846L1.89762 6.68145L0.706571 5.18682C0.522241 4.95251 0.483249 4.6401 0.607317 4.36673C0.731385 4.09692 0.993698 3.91941 1.29146 3.90876L3.19857 3.83065L3.0036 1.92775C2.97878 1.70409 3.04968 1.48753 3.2021 1.32067C3.35099 1.15381 3.56723 1.05796 3.787 1.05796C3.92525 1.05796 4.0635 1.09701 4.18402 1.16801L5.8288 2.13366L6.69019 0.429573C6.82489 0.166859 7.0943 0 7.39206 0C7.68983 0 7.95924 0.166859 8.09394 0.433123L8.96241 2.14431L10.6037 1.17156C10.7242 1.10056 10.8624 1.06151 11.0007 1.06151C11.224 1.06151 11.4367 1.15736 11.5856 1.32422C11.7345 1.49108 11.8053 1.70764 11.7841 1.9313L11.5891 3.8342L13.4962 3.91231C13.794 3.92296 14.0563 4.10047 14.1804 4.37028C14.3044 4.6401 14.2654 4.95606 14.0811 5.19038L12.8901 6.685L14.4533 7.78201C14.6979 7.95242 14.822 8.24354 14.7794 8.5382C14.7369 8.83287 14.5348 9.07783 14.2548 9.17369L12.447 9.78787L13.1701 11.5559C13.2694 11.8008 13.241 12.0742 13.0956 12.2908C12.9503 12.5109 12.7057 12.6422 12.4434 12.6422C12.3796 12.6422 12.3158 12.6351 12.252 12.6174L10.3981 12.1558L10.0507 14.0339C9.97622 14.4031 9.65011 14.6765 9.27081 14.6765Z" fill="#01131E"/>
<path fill-rule="evenodd" clip-rule="evenodd" d="M14.5608 7.86384C14.5854 7.88276 14.6087 7.90295 14.6306 7.92428L14.6388 7.93134C14.6587 7.94666 14.6778 7.96282 14.6959 7.97974C14.7284 8.00298 14.7586 8.02837 14.7866 8.05563L14.7955 8.06329C14.8087 8.07345 14.8215 8.08397 14.8339 8.09484C14.8585 8.11373 14.8817 8.13389 14.9036 8.1552L14.9107 8.16129C14.9245 8.17186 14.9379 8.18283 14.9508 8.19418C14.9754 8.21308 14.9987 8.23325 15.0206 8.25457L15.0287 8.26163C15.0417 8.27161 15.0544 8.28194 15.0666 8.29261C15.0804 8.3032 15.0939 8.31419 15.1068 8.32555C15.1314 8.34442 15.1546 8.36456 15.1764 8.38583L15.1848 8.39304C15.1982 8.40332 15.2112 8.41396 15.2237 8.42496C15.2368 8.43497 15.2494 8.44533 15.2617 8.45603C15.278 8.46851 15.2937 8.48154 15.3088 8.49509C15.3209 8.50453 15.3327 8.51427 15.3442 8.52431C15.3577 8.53463 15.3707 8.54534 15.3833 8.5564C15.4075 8.57498 15.4304 8.59479 15.452 8.61571L15.4613 8.62375C15.4747 8.63402 15.4876 8.64467 15.5002 8.65568C15.5136 8.66599 15.5267 8.67668 15.5393 8.68774C15.5639 8.7066 15.5871 8.72674 15.6089 8.748L15.6161 8.75424C15.6299 8.76477 15.6433 8.77571 15.6562 8.78702C15.8811 8.95975 15.9936 9.23904 15.9528 9.5216C15.9102 9.81627 15.7082 10.0612 15.4281 10.1571L13.6203 10.7713L14.3434 12.5393C14.4427 12.7842 14.4143 13.0576 14.269 13.2741C14.1236 13.4943 13.8791 13.6256 13.6167 13.6256C13.5529 13.6256 13.4891 13.6185 13.4253 13.6008L11.5714 13.1392L11.224 15.0173C11.1496 15.3936 10.8234 15.6634 10.4441 15.6634C10.2546 15.6634 10.0732 15.5952 9.93099 15.4707C9.91811 15.4608 9.9055 15.4505 9.89318 15.4398C9.86847 15.4209 9.84476 15.4004 9.82219 15.3784L9.81405 15.3714C9.80073 15.3612 9.78771 15.3505 9.775 15.3394C9.76173 15.3292 9.74876 15.3185 9.73609 15.3074C9.71215 15.2891 9.68914 15.2692 9.66721 15.2479L9.65808 15.24C9.64477 15.2298 9.63175 15.2192 9.61905 15.208C9.60329 15.1959 9.58793 15.1832 9.57303 15.1698C9.56135 15.1608 9.5499 15.1513 9.53869 15.1415C9.52498 15.1311 9.51158 15.1201 9.49851 15.1087C9.48524 15.0985 9.47226 15.0878 9.4596 15.0767C9.43528 15.0581 9.41194 15.0379 9.38971 15.0162L9.38159 15.0092C9.36868 14.9993 9.35604 14.989 9.34369 14.9782C9.31902 14.9593 9.29535 14.9389 9.27282 14.9169L9.26454 14.9098C9.25128 14.8996 9.23831 14.889 9.22565 14.8779C9.21271 14.868 9.20005 14.8576 9.18768 14.8468C9.16303 14.828 9.13937 14.8075 9.11684 14.7856L9.10857 14.7784C9.0951 14.7681 9.08192 14.7573 9.06907 14.746C9.04503 14.7275 9.02195 14.7075 8.99995 14.6861L8.99289 14.68C8.97922 14.6696 8.96586 14.6586 8.95282 14.6472C8.93953 14.637 8.92653 14.6264 8.91384 14.6153C8.88952 14.5966 8.86617 14.5764 8.84393 14.5548L8.83573 14.5477C8.80147 14.5214 8.76913 14.4921 8.7391 14.4598L8.44707 14.1491L7.25736 15.4149C7.10848 15.5747 6.90288 15.6634 6.68665 15.6634C6.48935 15.6634 6.30643 15.5904 6.16635 15.4679C6.15339 15.4579 6.14074 15.4476 6.12842 15.4368C6.10351 15.4178 6.07974 15.3972 6.05725 15.3753L6.04927 15.3684C6.03597 15.3582 6.023 15.3476 6.01038 15.3365C5.99702 15.3263 5.98399 15.3156 5.97131 15.3045C5.94717 15.2859 5.9241 15.266 5.90224 15.2448L5.89335 15.2371C5.88002 15.2269 5.86703 15.2162 5.85439 15.2052C5.83854 15.193 5.82316 15.1802 5.80828 15.1669C5.79657 15.1578 5.78511 15.1484 5.77393 15.1386C5.76023 15.1281 5.74687 15.1172 5.73388 15.1058C5.72052 15.0956 5.70749 15.0849 5.69481 15.0738C5.67031 15.055 5.64692 15.0347 5.62476 15.0131L5.61682 15.0063C5.60391 14.9963 5.59131 14.986 5.57904 14.9753C5.55409 14.9562 5.53028 14.9357 5.50776 14.9137L5.49988 14.9069C5.48656 14.8967 5.47356 14.886 5.46091 14.875C5.44796 14.865 5.43531 14.8547 5.42299 14.8439C5.39808 14.8249 5.37431 14.8043 5.35182 14.7824L5.34387 14.7756C5.33036 14.7652 5.31718 14.7544 5.30437 14.7431C5.28009 14.7244 5.2569 14.7043 5.23494 14.6829L5.2282 14.6771C5.21449 14.6666 5.20113 14.6557 5.18813 14.6443C5.1748 14.6341 5.1618 14.6235 5.14914 14.6124C5.12457 14.5935 5.10112 14.5732 5.07891 14.5516L5.07111 14.5449C4.92158 14.43 4.81336 14.2622 4.77601 14.0658L4.64743 13.3693L3.71256 13.6043C3.64875 13.6185 3.58495 13.6292 3.52115 13.6292C3.32956 13.6292 3.14932 13.5591 3.00804 13.4356C2.99516 13.4257 2.98256 13.4153 2.97025 13.4046C2.9453 13.3855 2.92139 13.3649 2.89864 13.3427L2.89103 13.3362C2.87777 13.326 2.8648 13.3153 2.85214 13.3043C2.83882 13.294 2.82579 13.2833 2.81308 13.2722C2.78897 13.2537 2.76582 13.2337 2.74376 13.2123L2.73507 13.2048C2.72181 13.1946 2.70885 13.184 2.69619 13.1729C2.68036 13.1608 2.66494 13.148 2.64998 13.1346C2.63834 13.1255 2.62692 13.1161 2.61575 13.1064C2.60204 13.0959 2.58864 13.0849 2.57557 13.0735C2.56227 13.0633 2.54926 13.0526 2.53657 13.0415C2.51209 13.0227 2.4886 13.0024 2.46624 12.9806L2.45857 12.974C2.44572 12.9641 2.43314 12.9538 2.42085 12.9431C2.39588 12.924 2.37195 12.9033 2.34918 12.8812L2.34169 12.8747C2.32837 12.8645 2.31534 12.8538 2.30263 12.8427C2.28976 12.8328 2.27715 12.8225 2.26485 12.8117C2.23989 12.7926 2.21597 12.772 2.19321 12.7498L2.18571 12.7433C2.1722 12.733 2.159 12.7221 2.14612 12.7108C2.12186 12.6922 2.09857 12.672 2.0764 12.6504L2.06989 12.6448C2.05627 12.6344 2.04296 12.6235 2.02997 12.6121C2.01662 12.6019 2.00356 12.5912 1.99082 12.58C1.96632 12.5612 1.94283 12.5409 1.92045 12.5191L1.91279 12.5125C1.8448 12.4603 1.7845 12.3964 1.73457 12.3226C1.58923 12.1061 1.56088 11.8291 1.66013 11.5877L2.17903 10.3165L1.70975 10.1571C1.60836 10.1228 1.5174 10.0699 1.44042 10.0025C1.42747 9.99258 1.41486 9.98225 1.4026 9.97156C1.37776 9.95257 1.35415 9.93216 1.33189 9.91045L1.32347 9.90318C1.3101 9.89291 1.29709 9.88224 1.28445 9.87118C1.27111 9.86093 1.25813 9.85028 1.24552 9.83924C1.22144 9.82076 1.19853 9.80095 1.17688 9.77992L1.1675 9.77183C1.15413 9.76157 1.14113 9.7509 1.1285 9.73984C1.11264 9.72767 1.09729 9.71492 1.08247 9.70163C1.07073 9.69251 1.05927 9.68307 1.04811 9.67333C1.03434 9.6628 1.02095 9.65184 1.00795 9.64046C0.994608 9.63021 0.981621 9.61956 0.969009 9.60852C0.94457 9.58976 0.921337 9.56963 0.899405 9.54825L0.891008 9.541C0.878037 9.53104 0.865405 9.5207 0.853128 9.50999C0.828295 9.491 0.804702 9.4706 0.782449 9.4489L0.773995 9.44161C0.760652 9.43136 0.747669 9.42071 0.735061 9.40967C0.722071 9.3997 0.709422 9.38935 0.697128 9.37862C0.672309 9.35964 0.648728 9.33925 0.626485 9.31756L0.618 9.31024C0.604462 9.29985 0.591294 9.28903 0.578512 9.27782C0.554335 9.25922 0.531341 9.23928 0.509623 9.21811L0.502324 9.21182C0.488586 9.20132 0.475227 9.19038 0.462264 9.17904C0.448903 9.16879 0.435902 9.15813 0.423277 9.14707C0.398809 9.1283 0.375549 9.10816 0.353593 9.08676L0.345254 9.07956C0.185382 8.95691 0.0770758 8.77569 0.0472405 8.56652C0.00470286 8.27186 0.128776 7.98074 0.373367 7.81033L1.93663 6.71332L0.745567 5.2187C0.561237 4.98438 0.522245 4.67197 0.646313 4.3986C0.770381 4.12879 1.03269 3.95128 1.33046 3.94063L3.23756 3.86252L3.0426 1.95962C3.01779 1.73596 3.08868 1.5194 3.24111 1.35254C3.38999 1.18568 3.60622 1.08983 3.826 1.08983C3.96425 1.08983 4.10249 1.12888 4.22302 1.19988L5.86781 2.16553L6.7292 0.461443C6.8639 0.195179 7.13331 0.0283203 7.43107 0.0283203C7.62502 0.0283203 7.80694 0.0991141 7.94744 0.222061C7.97183 0.240781 7.99516 0.260969 8.01731 0.28254L8.02544 0.289555C8.04523 0.304746 8.06433 0.320903 8.08266 0.337981C8.11465 0.3609 8.14498 0.386266 8.17335 0.413903L8.18213 0.421491C8.19525 0.431585 8.20806 0.442104 8.22054 0.453035C8.24488 0.471724 8.26816 0.491875 8.29026 0.513404L8.29739 0.519549C8.31107 0.530013 8.32442 0.540937 8.33741 0.552307C8.35076 0.56256 8.3638 0.573254 8.37651 0.584374C8.40087 0.603082 8.42417 0.623255 8.44629 0.644808L8.45327 0.650824C8.46701 0.66133 8.48041 0.6723 8.49346 0.683719C8.51781 0.702421 8.54111 0.722587 8.56323 0.744132L8.57143 0.751213C8.58474 0.761436 8.59774 0.772097 8.6104 0.783181C8.62334 0.793113 8.63598 0.803458 8.6483 0.814203C8.66448 0.826581 8.6802 0.839603 8.69541 0.853247C8.70753 0.862662 8.71939 0.872443 8.73097 0.882578C8.74429 0.892806 8.75729 0.903472 8.76996 0.914562C8.79395 0.93298 8.81691 0.952818 8.83872 0.973995L8.84792 0.981923C8.86124 0.992148 8.87424 1.00281 8.8869 1.0139C8.90023 1.02413 8.91325 1.03481 8.92593 1.04591C8.95028 1.06461 8.97357 1.08476 8.99568 1.1063L9.00277 1.11241C9.01648 1.1229 9.02985 1.13384 9.04287 1.14524C9.13522 1.21615 9.21241 1.30809 9.26727 1.41652L9.5008 1.87665L10.6427 1.19988C10.7632 1.12888 10.9014 1.08983 11.0397 1.08983C11.2304 1.08983 11.4133 1.15971 11.5554 1.28401C11.5798 1.30275 11.6032 1.32299 11.6254 1.34465L11.6334 1.3515C11.6531 1.36668 11.6722 1.38283 11.6906 1.39993C11.7225 1.42281 11.7529 1.44817 11.7813 1.47586L11.7902 1.48352C11.8032 1.49357 11.816 1.50404 11.8284 1.51493C11.8528 1.53366 11.8762 1.55388 11.8984 1.57552L11.9052 1.58143C11.919 1.59193 11.9324 1.60291 11.9454 1.61434C11.9587 1.62455 11.9717 1.63519 11.9844 1.64627C12.0088 1.665 12.0321 1.68522 12.0543 1.70686L12.0612 1.71276C12.0749 1.72328 12.0884 1.73426 12.1014 1.74571C12.1257 1.76437 12.149 1.78452 12.1712 1.80607L12.1795 1.81326C12.1927 1.82344 12.2057 1.83407 12.2183 1.84513C12.2313 1.85506 12.2439 1.86542 12.2563 1.87619C12.2724 1.88856 12.2882 1.9016 12.3034 1.91527C12.3155 1.92464 12.3273 1.93437 12.3388 1.94447C12.3522 1.95472 12.3652 1.96541 12.3779 1.97655C12.4019 1.99495 12.4249 2.01479 12.4467 2.03601L12.4559 2.04391C12.4692 2.05411 12.4822 2.06476 12.4948 2.07583C12.5082 2.08608 12.5212 2.09677 12.5339 2.1079C12.5582 2.12656 12.5815 2.1467 12.6036 2.16826L12.6108 2.17444C12.6245 2.18489 12.6378 2.19581 12.6508 2.20719C12.6896 2.23698 12.7258 2.27055 12.7589 2.30762C12.9078 2.47448 12.9787 2.69104 12.9574 2.9147L12.8551 3.91278L13.5352 3.94063C13.7189 3.9472 13.8891 4.01725 14.0216 4.13329C14.046 4.15198 14.0693 4.17212 14.0913 4.19362L14.0996 4.20079C14.1194 4.21597 14.1385 4.23212 14.1568 4.24917C14.1888 4.27208 14.2191 4.29742 14.2474 4.32499L14.2563 4.33272C14.2694 4.34279 14.2822 4.35329 14.2946 4.36419C14.319 4.3829 14.3423 4.40306 14.3644 4.42458L14.3715 4.4307C14.3852 4.44119 14.3986 4.45214 14.4116 4.46354C14.436 4.48226 14.4593 4.50245 14.4814 4.52399L14.4895 4.531C14.5025 4.54094 14.5151 4.55128 14.5274 4.56202C14.5412 4.57253 14.5546 4.5835 14.5676 4.59491C14.592 4.61362 14.6153 4.63379 14.6374 4.65531L14.6455 4.66236C14.6589 4.67262 14.6719 4.6833 14.6846 4.69441C14.6975 4.70432 14.7101 4.71464 14.7224 4.72535C14.7386 4.73776 14.7544 4.75081 14.7696 4.76447C14.7817 4.77387 14.7935 4.78362 14.8051 4.79372C14.8184 4.80397 14.8314 4.81465 14.8441 4.82576C14.8681 4.84417 14.891 4.86399 14.9128 4.88513L14.9221 4.89312C14.9354 4.90336 14.9484 4.91403 14.9611 4.92513C14.9744 4.93534 14.9874 4.94599 15 4.95706C15.0244 4.97578 15.0477 4.99594 15.0698 5.01747L15.0769 5.02356C15.0906 5.03408 15.104 5.04505 15.1171 5.05647C15.217 5.13322 15.2989 5.23444 15.3537 5.35368C15.4778 5.62349 15.4388 5.93946 15.2544 6.17377L14.1447 7.56639L14.4923 7.81033C14.5163 7.82705 14.5391 7.84492 14.5608 7.86384Z" fill="#01131E"/>
<path d="M10.4831 15.699C10.2669 15.699 10.0613 15.6102 9.91242 15.4504L8.60439 14.0588L7.29636 15.4504C7.14748 15.6102 6.94187 15.699 6.72564 15.699C6.34635 15.699 6.02022 15.4291 5.94933 15.0564L5.60194 13.1748L3.75156 13.6398C3.68775 13.654 3.62394 13.6647 3.56013 13.6647C3.29782 13.6647 3.05677 13.5333 2.90789 13.3132C2.76255 13.0967 2.7342 12.8197 2.83345 12.5783L3.55659 10.8068L1.74875 10.1926C1.46516 10.0968 1.2631 9.85534 1.22056 9.55712C1.17802 9.26246 1.3021 8.97134 1.54669 8.80093L3.10995 7.70393L1.91889 6.2093C1.73456 5.97498 1.69557 5.66257 1.81963 5.3892C1.9437 5.11939 2.20602 4.94188 2.50378 4.93123L4.41088 4.85312L4.21592 2.95022C4.19111 2.72656 4.26201 2.51 4.41443 2.34314C4.56331 2.17628 4.77955 2.08043 4.99932 2.08043C5.13757 2.08043 5.27582 2.11948 5.39634 2.19048L7.04113 3.15613L7.90252 1.45204C8.03722 1.18578 8.30663 1.01892 8.60439 1.01892C8.90216 1.01892 9.17155 1.18578 9.30626 1.45204L10.1747 3.16323L11.816 2.19048C11.9365 2.11948 12.0748 2.08043 12.213 2.08043C12.4363 2.08043 12.649 2.17628 12.7979 2.34314C12.9468 2.51 13.0177 2.72656 12.9964 2.95022L12.8014 4.85312L14.7085 4.93123C15.0063 4.94188 15.2686 5.11939 15.3927 5.3892C15.5168 5.65902 15.4778 5.97498 15.2934 6.2093L14.1024 7.70393L15.6656 8.80093C15.9102 8.97134 16.0343 9.26246 15.9918 9.55712C15.9492 9.85179 15.7472 10.0968 15.4671 10.1926L13.6593 10.8068L14.3824 12.5748C14.4817 12.8197 14.4533 13.0931 14.308 13.3097C14.1626 13.5298 13.918 13.6611 13.6557 13.6611C13.5919 13.6611 13.5281 13.654 13.4643 13.6363L11.6139 13.1748L11.2665 15.0528C11.1885 15.4256 10.8624 15.699 10.4831 15.699Z" fill="#01131E"/>
<path d="M14.2087 7.77178L12.5958 6.63927C12.4221 6.51857 12.3902 6.27715 12.5214 6.11384L13.7479 4.57306C13.9358 4.33875 13.7763 3.99083 13.4785 3.98018L11.5111 3.89853C11.302 3.89143 11.1425 3.70682 11.1637 3.49736L11.3658 1.53765C11.3977 1.23944 11.0751 1.03352 10.8163 1.18618L9.11838 2.18379C8.93759 2.29029 8.70364 2.22284 8.60793 2.03468L7.71819 0.277335C7.58349 0.0110707 7.20065 0.0110707 7.06595 0.277335L6.1762 2.03468C6.08049 2.22284 5.84653 2.29029 5.66574 2.18379L3.96778 1.18618C3.70901 1.03352 3.38998 1.23944 3.41834 1.53765L3.6204 3.49736C3.64167 3.70682 3.48215 3.89143 3.273 3.89853L1.30564 3.98018C1.00788 3.99083 0.848359 4.33875 1.03623 4.57306L2.26273 6.11384C2.39389 6.27715 2.35844 6.51857 2.18829 6.63927L0.575403 7.77178C0.330811 7.94219 0.383987 8.32206 0.667571 8.41792L2.53214 9.04985C2.73065 9.1173 2.83345 9.34097 2.75192 9.53268L2.00751 11.3575C1.89407 11.6344 2.14221 11.922 2.43289 11.8509L4.34353 11.3717C4.54913 11.322 4.75118 11.4533 4.79018 11.6592L5.14821 13.5976C5.20138 13.8923 5.56649 13.9988 5.77208 13.7823L7.12265 12.3444C7.26799 12.1918 7.50904 12.1918 7.65437 12.3444L9.00495 13.7823C9.21055 13.9988 9.57566 13.8923 9.62883 13.5976L9.98686 11.6592C10.0259 11.4533 10.2315 11.322 10.4335 11.3717L12.3442 11.8509C12.6348 11.922 12.883 11.6344 12.7695 11.3575L12.0251 9.53268C11.9471 9.33742 12.0464 9.1173 12.2449 9.04985L14.1095 8.41792C14.4001 8.31851 14.4533 7.94219 14.2087 7.77178Z" fill="#FEDE65"/>
<path d="M12.3385 7.65557L11.149 6.84189C11.0209 6.75517 10.9974 6.58172 11.0941 6.46439L11.9986 5.35739C12.1372 5.18904 12.0196 4.93907 11.8 4.93142L10.3491 4.87275C10.1949 4.86765 10.0772 4.73502 10.0929 4.58452L10.2419 3.17654C10.2655 2.96228 10.0276 2.81434 9.83674 2.92402L8.58456 3.64077C8.45124 3.71729 8.2787 3.66882 8.20812 3.53364L7.55197 2.27104C7.45264 2.07974 7.17031 2.07974 7.07097 2.27104L6.41482 3.53364C6.34424 3.66882 6.1717 3.71729 6.03838 3.64077L4.7862 2.92402C4.59537 2.81434 4.3601 2.96228 4.38101 3.17654L4.53002 4.58452C4.5457 4.73502 4.42806 4.86765 4.27383 4.87275L2.82298 4.93142C2.60339 4.93907 2.48575 5.18904 2.6243 5.35739L3.5288 6.46439C3.62552 6.58172 3.59938 6.75517 3.4739 6.84189L2.28446 7.65557C2.10408 7.778 2.1433 8.05092 2.35243 8.11979L3.72747 8.57382C3.87387 8.62228 3.94968 8.78298 3.88955 8.92071L3.34058 10.2318C3.25692 10.4307 3.43992 10.6373 3.65428 10.5863L5.0633 10.242C5.21492 10.2063 5.36393 10.3006 5.39268 10.4486L5.65672 11.8413C5.69593 12.053 5.96518 12.1295 6.1168 11.9739L7.11279 10.9409C7.21997 10.8312 7.39773 10.8312 7.50491 10.9409L8.50091 11.9739C8.65253 12.1295 8.92178 12.053 8.961 11.8413L9.22503 10.4486C9.25378 10.3006 9.40541 10.2063 9.55441 10.242L10.9634 10.5863C11.1778 10.6373 11.3608 10.4307 11.2771 10.2318L10.7282 8.92071C10.6707 8.78043 10.7438 8.62228 10.8902 8.57382L12.2653 8.11979C12.4796 8.04837 12.5189 7.778 12.3385 7.65557Z" fill="#01131E"/>
<path d="M10.9517 7.49447L10.0903 6.91328C9.99758 6.85133 9.98055 6.72744 10.0506 6.64363L10.7056 5.85291C10.8059 5.73267 10.7207 5.55412 10.5617 5.54865L9.51108 5.50675C9.39939 5.5031 9.31421 5.40836 9.32557 5.30087L9.43347 4.29517C9.4505 4.14212 9.27824 4.03645 9.14005 4.1148L8.2333 4.62676C8.13676 4.68142 8.01182 4.6468 7.96071 4.55024L7.48557 3.64838C7.41364 3.51174 7.20919 3.51174 7.13726 3.64838L6.66211 4.55024C6.611 4.6468 6.48606 4.68142 6.38952 4.62676L5.48277 4.1148C5.34458 4.03645 5.17421 4.14212 5.18936 4.29517L5.29726 5.30087C5.30862 5.40836 5.22343 5.5031 5.11174 5.50675L4.06113 5.54865C3.90211 5.55412 3.81693 5.73267 3.91726 5.85291L4.57223 6.64363C4.64228 6.72744 4.62335 6.85133 4.53248 6.91328L3.67116 7.49447C3.54055 7.58192 3.56894 7.77687 3.72038 7.82606L4.7161 8.15037C4.82211 8.18498 4.87701 8.29976 4.83347 8.39815L4.43594 9.33462C4.37536 9.47673 4.50787 9.62431 4.6631 9.58787L5.68343 9.34191C5.79322 9.3164 5.90112 9.38381 5.92195 9.48948L6.11314 10.4843C6.14154 10.6355 6.33651 10.6901 6.44631 10.579L7.16754 9.84112C7.24515 9.76277 7.37388 9.76277 7.45149 9.84112L8.17273 10.579C8.28253 10.6901 8.4775 10.6355 8.5059 10.4843L8.69709 9.48948C8.71791 9.38381 8.82771 9.3164 8.93561 9.34191L9.95594 9.58787C10.1112 9.62431 10.2437 9.47673 10.1831 9.33462L9.78557 8.39815C9.74392 8.29794 9.79693 8.18498 9.90293 8.15037L10.8987 7.82606C11.0539 7.77505 11.0823 7.58192 10.9517 7.49447Z" fill="#F94A29"/>
</svg>
