<svg width="434" height="123" viewBox="0 0 434 123" fill="none" xmlns="http://www.w3.org/2000/svg">
<rect x="8" y="59" width="63" height="63" rx="3" stroke="#51636E" stroke-width="2"/>
<rect y="51" width="65" height="65" rx="4" fill="#000B1D"/>
<g clip-path="url(#clip0_433_309)">
<path d="M11.5104 51H53.4896C55.0016 50.9985 56.499 51.3029 57.8961 51.8957C59.2933 52.4884 60.5627 53.358 61.6319 54.4545C62.701 55.5511 63.5488 56.8531 64.1267 58.286C64.7047 59.719 65.0014 61.2548 65 62.8056V104.194C65.0014 105.745 64.7047 107.281 64.1267 108.714C63.5488 110.147 62.701 111.449 61.6319 112.545C60.5627 113.642 59.2933 114.512 57.8961 115.104C56.499 115.697 55.0016 116.001 53.4896 116H11.5104C9.99845 116.001 8.50104 115.697 7.10389 115.104C5.70674 114.512 4.43727 113.642 3.36815 112.545C2.29903 111.449 1.45123 110.147 0.873281 108.714C0.295333 107.281 -0.00141994 105.745 5.10812e-06 104.194V62.8056C-0.00141994 61.2548 0.295333 59.719 0.873281 58.286C1.45123 56.8531 2.29903 55.5511 3.36815 54.4545C4.43727 53.358 5.70674 52.4884 7.10389 51.8957C8.50104 51.3029 9.99845 50.9985 11.5104 51Z" fill="#000B1D"/>
<path d="M26.2709 103.325C30.0104 103.325 33.0418 100.294 33.0418 96.5542V89.7833H26.2709C22.5315 89.7833 19.5001 92.8147 19.5001 96.5542C19.5001 100.294 22.5315 103.325 26.2709 103.325Z" fill="#0ACF83"/>
<path d="M19.5001 83.0125C19.5001 79.2731 22.5315 76.2417 26.2709 76.2417H33.0418V89.7834H26.2709C22.5315 89.7834 19.5001 86.752 19.5001 83.0125Z" fill="#A259FF"/>
<path d="M19.5001 69.4708C19.5001 65.7314 22.5315 62.7 26.2709 62.7H33.0418V76.2417H26.2709C22.5315 76.2417 19.5001 73.2103 19.5001 69.4708Z" fill="#F24E1E"/>
<path d="M33.0418 62.7H39.8126C43.552 62.7 46.5834 65.7314 46.5834 69.4708C46.5834 73.2103 43.552 76.2417 39.8126 76.2417H33.0418V62.7Z" fill="#FF7262"/>
<path d="M46.5834 83.0125C46.5834 86.752 43.552 89.7834 39.8126 89.7834C36.0732 89.7834 33.0418 86.752 33.0418 83.0125C33.0418 79.2731 36.0732 76.2417 39.8126 76.2417C43.552 76.2417 46.5834 79.2731 46.5834 83.0125Z" fill="#1ABCFE"/>
</g>
<rect x="185" y="8" width="63" height="63" rx="3" stroke="#51636E" stroke-width="2"/>
<rect x="177" width="65" height="65" rx="4" fill="#000B1D"/>
<rect x="177" width="65" height="65" rx="4" fill="#1769FF"/>
<path fill-rule="evenodd" clip-rule="evenodd" d="M209.054 27.1442C209.054 25.8914 208.725 24.8176 208.071 23.9188C206.981 22.4549 205.132 21.7049 202.519 21.6667H192.167V42.8005H201.82C202.908 42.8005 203.915 42.708 204.847 42.5169C205.778 42.3239 206.583 41.972 207.266 41.4552C207.874 41.0048 208.379 40.4498 208.783 39.7923C209.421 38.7989 209.739 37.6749 209.739 36.4221C209.739 35.2076 209.459 34.174 208.905 33.3254C208.344 32.4749 207.521 31.8535 206.428 31.4594C207.148 31.0974 207.692 30.6953 208.063 30.2569C208.725 29.4727 209.054 28.4331 209.054 27.1442ZM223.499 25.2821H214.318V22.652H223.499V25.2821ZM215.389 33.4401C215.539 32.4226 215.908 31.6162 216.493 31.021C217.078 30.4258 217.906 30.1282 218.966 30.1282C219.944 30.1282 220.761 30.4077 221.426 30.9687C222.082 31.5338 222.453 32.3542 222.529 33.4401H215.389ZM222.69 27.49C223.796 27.9766 224.708 28.7488 225.425 29.8025C226.079 30.7315 226.499 31.8093 226.691 33.0339C226.803 33.7497 226.848 34.7873 226.829 36.1366H215.287C215.356 37.703 215.902 38.8029 216.946 39.4323C217.578 39.8244 218.338 40.0215 219.231 40.0215C220.17 40.0215 220.939 39.7822 221.528 39.3056C221.852 39.0462 222.137 38.6883 222.382 38.2298H226.611C226.499 39.1548 225.986 40.0979 225.076 41.0551C223.658 42.5732 221.67 43.3333 219.117 43.3333C217.007 43.3333 215.146 42.6939 213.538 41.411C211.921 40.1301 211.118 38.0428 211.118 35.1553C211.118 32.4467 211.846 30.3695 213.299 28.9237C214.757 27.482 216.642 26.7561 218.964 26.7561C220.344 26.7561 221.585 27.0014 222.69 27.49ZM196.437 39.1327V33.4964H201.712C202.629 33.5044 203.344 33.625 203.854 33.8543C204.765 34.2665 205.218 35.0206 205.218 36.1225C205.218 37.4215 204.749 38.2982 203.809 38.7607C203.294 39.008 202.568 39.1327 201.638 39.1327H196.437ZM196.437 25.3364V29.9995H201.647C202.574 29.9995 203.33 29.8246 203.913 29.4747C204.492 29.1248 204.783 28.5055 204.783 27.6207C204.783 26.6334 204.4 25.9839 203.634 25.6662C202.969 25.447 202.126 25.3364 201.1 25.3364H196.437Z" fill="white"/>
<rect x="370" y="51" width="63" height="63" rx="3" stroke="#51636E" stroke-width="2"/>
<rect x="362" y="43" width="65" height="65" rx="4" fill="#001E36"/>
<path d="M415.625 43H373.375C367.093 43 362 48.0928 362 54.375V96.625C362 102.907 367.093 108 373.375 108H415.625C421.907 108 427 102.907 427 96.625V54.375C427 48.0928 421.907 43 415.625 43Z" fill="#001E36"/>
<path d="M376.625 89.0829V61.5797C376.625 61.3828 376.724 61.2844 376.921 61.2844C379.061 61.2281 381.779 61.2 385.075 61.2C388.961 61.2 391.806 62.0718 393.609 63.8154C395.439 65.5589 396.355 67.7102 396.355 70.2693C396.355 73.4471 395.228 75.8094 392.975 77.3561C390.722 78.9028 387.891 79.6761 384.483 79.6761H381.99V89.0407C381.99 89.2657 381.878 89.3782 381.652 89.3782H376.963C376.738 89.3782 376.625 89.2798 376.625 89.0829ZM381.99 65.2496V75.6266C382.385 75.6828 383.3 75.7109 384.737 75.7109C386.624 75.7109 388.145 75.3032 389.299 74.4876C390.482 73.644 391.074 72.2801 391.074 70.3959C391.074 68.7367 390.553 67.4571 389.511 66.5572C388.497 65.6573 387.018 65.2074 385.075 65.2074C384.596 65.2074 384.117 65.2214 383.638 65.2496C383.187 65.2496 382.807 65.2496 382.497 65.2496C382.216 65.2496 382.047 65.2496 381.99 65.2496Z" fill="#31A8FE"/>
<path d="M411.095 73.6861C409.517 72.7019 407.87 72.2097 406.152 72.2097C405.166 72.2097 404.434 72.3925 403.955 72.7581C403.504 73.1237 403.279 73.5596 403.279 74.0658C403.279 74.572 403.476 75.0219 403.87 75.4156C404.265 75.7812 405.095 76.2171 406.363 76.7233C408.701 77.6232 410.334 78.5794 411.264 79.5918C412.221 80.576 412.7 81.8556 412.7 83.4304C412.7 85.3427 411.968 86.8894 410.503 88.0705C409.067 89.2235 407.109 89.8 404.631 89.8C402.152 89.8 400.124 89.3501 398.547 88.4502C398.378 88.3939 398.294 88.2533 398.294 88.0283V84.1053C398.294 83.9928 398.322 83.9225 398.378 83.8944C398.462 83.8382 398.533 83.8382 398.589 83.8944C400.42 85.2443 402.377 85.9192 404.462 85.9192C405.447 85.9192 406.194 85.7505 406.701 85.413C407.236 85.0474 407.504 84.5834 407.504 84.021C407.504 83.4304 407.292 82.9383 406.87 82.5446C406.447 82.1227 405.616 81.6728 404.377 81.1947C402.124 80.3229 400.547 79.3949 399.645 78.4106C398.772 77.3982 398.336 76.1328 398.336 74.6142C398.336 72.8706 398.998 71.4083 400.321 70.2272C401.645 69.046 403.532 68.4555 405.983 68.4555C408.264 68.4555 410.024 68.7648 411.264 69.3835C411.404 69.4679 411.475 69.6507 411.475 69.9319V73.4331C411.475 73.7705 411.348 73.8549 411.095 73.6861Z" fill="#31A8FE"/>
<defs>
<clipPath id="clip0_433_309">
<rect width="65" height="65" fill="white" transform="translate(0 51)"/>
</clipPath>
</defs>
</svg>
