<svg width="24" height="24" viewBox="0 0 24 24" fill="none" xmlns="http://www.w3.org/2000/svg">
<g clip-path="url(#clip0_52_302)">
<path d="M4.25 1.93444e-06H19.75C20.3083 -0.000537727 20.8612 0.111842 21.377 0.33071C21.8929 0.549578 22.3616 0.870637 22.7564 1.27551C23.1511 1.68039 23.4642 2.16113 23.6776 2.69023C23.891 3.21933 24.0005 3.7864 24 4.35898V19.641C24.0005 20.2136 23.891 20.7807 23.6776 21.3098C23.4642 21.8389 23.1511 22.3196 22.7564 22.7245C22.3616 23.1294 21.8929 23.4504 21.377 23.6693C20.8612 23.8882 20.3083 24.0005 19.75 24H4.25C3.69174 24.0005 3.13885 23.8882 2.62297 23.6693C2.1071 23.4504 1.63838 23.1294 1.24362 22.7245C0.848871 22.3196 0.535838 21.8389 0.322442 21.3098C0.109046 20.7807 -0.000524284 20.2136 1.88608e-06 19.641V4.35898C-0.000524284 3.7864 0.109046 3.21933 0.322442 2.69023C0.535838 2.16113 0.848871 1.68039 1.24362 1.27551C1.63838 0.870637 2.1071 0.549578 2.62297 0.33071C3.13885 0.111842 3.69174 -0.000537727 4.25 1.93444e-06Z" fill="#000B1D"/>
<path d="M9.70001 19.32C11.0807 19.32 12.2 18.2007 12.2 16.82V14.32H9.70001C8.3193 14.32 7.20001 15.4393 7.20001 16.82C7.20001 18.2007 8.3193 19.32 9.70001 19.32Z" fill="#0ACF83"/>
<path d="M7.20001 11.82C7.20001 10.4393 8.3193 9.32001 9.70001 9.32001H12.2V14.32H9.70001C8.3193 14.32 7.20001 13.2007 7.20001 11.82Z" fill="#A259FF"/>
<path d="M7.20001 6.82001C7.20001 5.43929 8.3193 4.32001 9.70001 4.32001H12.2V9.32001H9.70001C8.3193 9.32001 7.20001 8.20072 7.20001 6.82001Z" fill="#F24E1E"/>
<path d="M12.2 4.32001H14.7C16.0807 4.32001 17.2 5.43929 17.2 6.82001C17.2 8.20072 16.0807 9.32001 14.7 9.32001H12.2V4.32001Z" fill="#FF7262"/>
<path d="M17.2 11.82C17.2 13.2007 16.0807 14.32 14.7 14.32C13.3193 14.32 12.2 13.2007 12.2 11.82C12.2 10.4393 13.3193 9.32001 14.7 9.32001C16.0807 9.32001 17.2 10.4393 17.2 11.82Z" fill="#1ABCFE"/>
</g>
<defs>
<clipPath id="clip0_52_302">
<rect width="24" height="24" fill="white"/>
</clipPath>
</defs>
</svg>
