<svg width="1069" height="568" viewBox="0 0 1069 568" fill="none" xmlns="http://www.w3.org/2000/svg">
<rect x="535" y="486" width="63" height="63" rx="3" stroke="#334550" stroke-width="2"/>
<rect x="528" y="479" width="65" height="65" rx="4" fill="#FFF597"/>
<rect x="1005" y="51" width="63" height="63" rx="3" stroke="#51636E" stroke-width="2"/>
<rect x="997" y="43" width="65" height="65" rx="4" fill="#FF9797"/>
<rect x="636" y="49" width="63" height="63" rx="3" stroke="#51636E" stroke-width="2"/>
<rect x="628" y="41" width="65" height="65" rx="4" fill="#D197FF"/>
<rect x="8" y="384" width="63" height="63" rx="3" stroke="#51636E" stroke-width="2"/>
<rect y="376" width="65" height="65" rx="4" fill="#D197FF"/>
<rect x="203" y="504" width="63" height="63" rx="3" stroke="#51636E" stroke-width="2"/>
<rect x="195" y="496" width="65" height="65" rx="4" fill="#FF9797"/>
<rect x="204" y="9" width="63" height="63" rx="3" stroke="#334550" stroke-width="2"/>
<rect x="195" width="65" height="65" rx="4" fill="#FFF597"/>
</svg>
