<svg width="155" height="155" viewBox="0 0 155 155" fill="none" xmlns="http://www.w3.org/2000/svg">
<path d="M75.5311 11.0378C75.9232 8.83944 79.0768 8.83944 79.4689 11.0378L87.1013 53.8253C87.3408 55.1679 88.8243 55.8823 90.0233 55.2325L128.235 34.5221C130.198 33.4581 132.164 35.9236 130.69 37.6009L101.996 70.2457C101.096 71.27 101.462 72.8753 102.718 73.4075L142.734 90.3697C144.79 91.2412 144.088 94.3157 141.858 94.2088L98.4446 92.1287C97.0824 92.0634 96.0558 93.3507 96.4226 94.6643L108.111 136.526C108.711 138.677 105.87 140.045 104.563 138.235L79.1216 102.996C78.3233 101.89 76.6767 101.89 75.8784 102.996L50.4371 138.235C49.1299 140.045 46.2887 138.677 46.8892 136.526L58.5774 94.6643C58.9442 93.3507 57.9176 92.0634 56.5554 92.1287L13.1423 94.2088C10.9118 94.3157 10.21 91.2412 12.266 90.3697L52.2824 73.4075C53.538 72.8753 53.9044 71.27 53.0041 70.2457L24.3102 37.6009C22.8359 35.9236 24.8021 33.4581 26.7654 34.5221L64.9767 55.2325C66.1757 55.8823 67.6592 55.1679 67.8987 53.8253L75.5311 11.0378Z" fill="#01131E"/>
<path d="M75.5311 11.0378C75.9232 8.83944 79.0768 8.83944 79.4689 11.0378L87.1013 53.8253C87.3408 55.1679 88.8243 55.8823 90.0233 55.2325L128.235 34.5221C130.198 33.4581 132.164 35.9236 130.69 37.6009L101.996 70.2457C101.096 71.27 101.462 72.8753 102.718 73.4075L142.734 90.3697C144.79 91.2412 144.088 94.3157 141.858 94.2088L98.4446 92.1287C97.0824 92.0634 96.0558 93.3507 96.4226 94.6643L108.111 136.526C108.711 138.677 105.87 140.045 104.563 138.235L79.1216 102.996C78.3233 101.89 76.6767 101.89 75.8784 102.996L50.4371 138.235C49.1299 140.045 46.2887 138.677 46.8892 136.526L58.5774 94.6643C58.9442 93.3507 57.9176 92.0634 56.5554 92.1287L13.1423 94.2088C10.9118 94.3157 10.21 91.2412 12.266 90.3697L52.2824 73.4075C53.538 72.8753 53.9044 71.27 53.0041 70.2457L24.3102 37.6009C22.8359 35.9236 24.8021 33.4581 26.7654 34.5221L64.9767 55.2325C66.1757 55.8823 67.6592 55.1679 67.8987 53.8253L75.5311 11.0378Z" stroke="white"/>
<path d="M76.5155 50.5189C76.7116 49.4197 78.2884 49.4197 78.4845 50.5189L81.4871 67.352C81.6069 68.0233 82.3486 68.3805 82.9481 68.0555L97.9809 59.9079C98.9625 59.3758 99.9456 60.6086 99.2085 61.4472L87.92 74.2901C87.4698 74.8022 87.653 75.6049 88.2808 75.871L104.024 82.5441C105.052 82.9798 104.701 84.5171 103.586 84.4636L86.5064 83.6453C85.8253 83.6127 85.312 84.2563 85.4953 84.9131L90.0936 101.382C90.3939 102.457 88.9733 103.142 88.3197 102.236L78.3108 88.373C77.9116 87.8201 77.0884 87.8201 76.6892 88.373L66.6803 102.236C66.0267 103.142 64.6061 102.457 64.9064 101.382L69.5047 84.9131C69.688 84.2563 69.1747 83.6127 68.4936 83.6453L51.4144 84.4636C50.2992 84.5171 49.9483 82.9798 50.9763 82.5441L66.7192 75.871C67.347 75.6049 67.5302 74.8022 67.08 74.2901L55.7915 61.4472C55.0544 60.6086 56.0375 59.3758 57.0191 59.9079L72.0519 68.0555C72.6514 68.3805 73.3931 68.0233 73.5129 67.352L76.5155 50.5189Z" fill="white"/>
<path d="M76.5155 50.5189C76.7116 49.4197 78.2884 49.4197 78.4845 50.5189L81.4871 67.352C81.6069 68.0233 82.3486 68.3805 82.9481 68.0555L97.9809 59.9079C98.9625 59.3758 99.9456 60.6086 99.2085 61.4472L87.92 74.2901C87.4698 74.8022 87.653 75.6049 88.2808 75.871L104.024 82.5441C105.052 82.9798 104.701 84.5171 103.586 84.4636L86.5064 83.6453C85.8253 83.6127 85.312 84.2563 85.4953 84.9131L90.0936 101.382C90.3939 102.457 88.9733 103.142 88.3197 102.236L78.3108 88.373C77.9116 87.8201 77.0884 87.8201 76.6892 88.373L66.6803 102.236C66.0267 103.142 64.6061 102.457 64.9064 101.382L69.5047 84.9131C69.688 84.2563 69.1747 83.6127 68.4936 83.6453L51.4144 84.4636C50.2992 84.5171 49.9483 82.9798 50.9763 82.5441L66.7192 75.871C67.347 75.6049 67.5302 74.8022 67.08 74.2901L55.7915 61.4472C55.0544 60.6086 56.0375 59.3758 57.0191 59.9079L72.0519 68.0555C72.6514 68.3805 73.3931 68.0233 73.5129 67.352L76.5155 50.5189Z" stroke="white"/>
</svg>
