<svg width="19" height="18" viewBox="0 0 19 18" fill="none" xmlns="http://www.w3.org/2000/svg">
<path fill-rule="evenodd" clip-rule="evenodd" d="M3.60131 3.87853C3.07439 4.56648 2.77954 5.53645 2.77954 6.57588C2.77954 7.61898 3.18986 8.68396 3.88307 9.73172C4.57462 10.777 5.51304 11.752 6.47915 12.5961C7.44186 13.4372 8.4088 14.1283 9.13715 14.6098C9.43906 14.8094 9.69848 14.972 9.89768 15.0934C10.0969 14.972 10.3563 14.8094 10.6582 14.6098C11.3866 14.1283 12.3535 13.4372 13.3162 12.5961C14.2823 11.752 15.2207 10.777 15.9123 9.73172C16.6055 8.68396 17.0158 7.61898 17.0158 6.57588C17.0158 5.53486 16.7229 4.56503 16.1977 3.87782C15.6917 3.21583 14.9478 2.77954 13.9016 2.77954C12.831 2.77954 12.0247 3.22187 11.4683 3.68552C11.1896 3.91778 10.9804 4.15039 10.8427 4.32246C10.7743 4.40801 10.7247 4.47716 10.6941 4.5218C10.6788 4.54407 10.6683 4.5601 10.6628 4.56884C10.6608 4.57197 10.6586 4.57535 10.6586 4.57535L9.90085 5.83832L9.13839 4.57806C9.13839 4.57806 9.13621 4.57461 9.13414 4.5714C9.12845 4.56258 9.11787 4.54647 9.10244 4.52411C9.0715 4.4793 9.02144 4.40996 8.95249 4.32422C8.81381 4.15177 8.60335 3.91874 8.32361 3.6861C7.76473 3.22134 6.95814 2.77954 5.89373 2.77954C4.85403 2.77954 4.10941 3.21515 3.60131 3.87853ZM9.89768 16.1261C9.466 16.9041 9.46554 16.9038 9.46554 16.9038L9.46306 16.9025C9.46306 16.9025 9.45963 16.9005 9.4572 16.8992C9.45234 16.8965 9.44557 16.8927 9.43695 16.8878C9.41972 16.8781 9.39511 16.8641 9.3636 16.8459C9.30058 16.8096 9.20993 16.7567 9.0956 16.688C8.86702 16.5508 8.54318 16.3504 8.15574 16.0943C7.38261 15.5831 6.34757 14.8442 5.3083 13.9362C4.27243 13.0312 3.20887 11.9378 2.39894 10.7136C1.59067 9.49194 1 8.08636 1 6.57588C1 5.22777 1.37804 3.85468 2.18855 2.79646C3.01788 1.71367 4.27524 1 5.89373 1C7.48749 1 8.68289 1.67041 9.46144 2.31786C9.623 2.45221 9.76785 2.5865 9.8961 2.71512C10.0238 2.58666 10.1681 2.45258 10.3291 2.31844C11.1073 1.66988 12.3029 1 13.9016 1C15.5248 1 16.7829 1.71299 17.6115 2.79717C18.4209 3.85613 18.7954 5.22936 18.7954 6.57588C18.7954 8.08636 18.2047 9.49194 17.3964 10.7136C16.5865 11.9378 15.5229 13.0312 14.4871 13.9362C13.4478 14.8442 12.4128 15.5831 11.6396 16.0943C11.2522 16.3504 10.9283 16.5508 10.6998 16.688C10.5854 16.7567 10.4948 16.8096 10.4318 16.8459C10.4003 16.8641 10.3756 16.8781 10.3584 16.8878C10.3543 16.8901 10.3507 16.8922 10.3475 16.894C10.3438 16.896 10.3407 16.8978 10.3382 16.8992C10.3357 16.9005 10.3323 16.9025 10.3323 16.9025L10.3298 16.9038C10.3298 16.9038 10.3294 16.9041 9.89768 16.1261ZM9.89768 16.1261L10.3298 16.9038L9.89768 17.1436L9.46554 16.9038L9.89768 16.1261Z" fill="black"/>
<path d="M2.77954 6.57588C2.77954 5.53645 3.07439 4.56648 3.60131 3.87853C4.10941 3.21515 4.85403 2.77954 5.89373 2.77954C6.95814 2.77954 7.76473 3.22134 8.32361 3.6861C8.60335 3.91874 8.81381 4.15177 8.95249 4.32422C9.02144 4.40996 9.0715 4.4793 9.10244 4.52411C9.11787 4.54647 9.12845 4.56258 9.13414 4.5714L9.13839 4.57806L9.90085 5.83832L10.6586 4.57535L10.6628 4.56884C10.6683 4.5601 10.6788 4.54407 10.6941 4.5218C10.7247 4.47716 10.7743 4.40801 10.8427 4.32246C10.9804 4.15039 11.1896 3.91778 11.4683 3.68552C12.0247 3.22187 12.831 2.77954 13.9016 2.77954C14.9478 2.77954 15.6917 3.21583 16.1977 3.87782C16.7229 4.56503 17.0158 5.53486 17.0158 6.57588C17.0158 7.61898 16.6055 8.68396 15.9123 9.73172C15.2207 10.777 14.2823 11.752 13.3162 12.5961C12.3535 13.4372 11.3866 14.1283 10.6582 14.6098C10.3563 14.8094 10.0969 14.972 9.89768 15.0934C9.69848 14.972 9.43906 14.8094 9.13715 14.6098C8.4088 14.1283 7.44186 13.4372 6.47915 12.5961C5.51304 11.752 4.57462 10.777 3.88307 9.73172C3.18986 8.68396 2.77954 7.61898 2.77954 6.57588Z" fill="black"/>
<path fill-rule="evenodd" clip-rule="evenodd" d="M2.70385 2.87853C2.17693 3.56648 1.88208 4.53645 1.88208 5.57588C1.88208 6.61898 2.2924 7.68396 2.9856 8.73172C3.67716 9.77699 4.61558 10.752 5.58169 11.5961C6.5444 12.4372 7.51134 13.1283 8.23969 13.6098C8.5416 13.8094 8.80102 13.972 9.00022 14.0934C9.19943 13.972 9.45885 13.8094 9.76076 13.6098C10.4891 13.1283 11.456 12.4372 12.4188 11.5961C13.3849 10.752 14.3233 9.77699 15.0148 8.73172C15.708 7.68396 16.1184 6.61898 16.1184 5.57588C16.1184 4.53486 15.8255 3.56503 15.3002 2.87782C14.7943 2.21583 14.0503 1.77954 13.0042 1.77954C11.9336 1.77954 11.1272 2.22187 10.5708 2.68552C10.2921 2.91778 10.0829 3.15039 9.94526 3.32246C9.87682 3.40801 9.82721 3.47716 9.7966 3.5218C9.78133 3.54407 9.77088 3.5601 9.76529 3.56884C9.76329 3.57197 9.76116 3.57535 9.76116 3.57535L9.00338 4.83832L8.24093 3.57806C8.24093 3.57806 8.23875 3.57461 8.23668 3.5714C8.23099 3.56258 8.22041 3.54647 8.20498 3.52411C8.17404 3.4793 8.12398 3.40996 8.05503 3.32422C7.91635 3.15177 7.70589 2.91874 7.42615 2.6861C6.86727 2.22134 6.06068 1.77954 4.99626 1.77954C3.95657 1.77954 3.21194 2.21515 2.70385 2.87853ZM9.00022 15.1261C8.56854 15.9041 8.56808 15.9038 8.56808 15.9038L8.56559 15.9025C8.56559 15.9025 8.56217 15.9005 8.55974 15.8992C8.55488 15.8965 8.54811 15.8927 8.53949 15.8878C8.52226 15.8781 8.49765 15.8641 8.46614 15.8459C8.40312 15.8096 8.31247 15.7567 8.19813 15.688C7.96956 15.5508 7.64572 15.3504 7.25828 15.0943C6.48515 14.5831 5.45011 13.8442 4.41084 12.9362C3.37497 12.0312 2.31141 10.9378 1.50148 9.71363C0.693209 8.49194 0.102539 7.08636 0.102539 5.57588C0.102539 4.22777 0.480576 2.85468 1.29109 1.79646C2.12042 0.713672 3.37777 0 4.99626 0C6.59003 0 7.78542 0.670411 8.56398 1.31786C8.72554 1.45221 8.87039 1.5865 8.99864 1.71512C9.12636 1.58666 9.27063 1.45258 9.4316 1.31844C10.2099 0.669879 11.4055 0 13.0042 0C14.6273 0 15.8854 0.712986 16.7141 1.79717C17.5235 2.85613 17.8979 4.22936 17.8979 5.57588C17.8979 7.08636 17.3072 8.49194 16.499 9.71363C15.689 10.9378 14.6255 12.0312 13.5896 12.9362C12.5503 13.8442 11.5153 14.5831 10.7422 15.0943C10.3547 15.3504 10.0309 15.5508 9.80231 15.688C9.68797 15.7567 9.59733 15.8096 9.53431 15.8459C9.5028 15.8641 9.47818 15.8781 9.46095 15.8878C9.45689 15.8901 9.45323 15.8922 9.44999 15.894C9.44637 15.896 9.44327 15.8978 9.44071 15.8992C9.43828 15.9005 9.43485 15.9025 9.43485 15.9025L9.43236 15.9038C9.43236 15.9038 9.4319 15.9041 9.00022 15.1261ZM9.00022 15.1261L9.43236 15.9038L9.00022 16.1436L8.56808 15.9038L9.00022 15.1261Z" fill="black"/>
<path d="M1.88208 5.57588C1.88208 4.53645 2.17693 3.56648 2.70385 2.87853C3.21194 2.21515 3.95657 1.77954 4.99626 1.77954C6.06068 1.77954 6.86727 2.22134 7.42615 2.6861C7.70589 2.91874 7.91635 3.15177 8.05503 3.32422C8.12398 3.40996 8.17404 3.4793 8.20498 3.52411C8.22041 3.54647 8.23099 3.56258 8.23668 3.5714L8.24093 3.57806L9.00338 4.83832L9.76116 3.57535L9.76529 3.56884C9.77088 3.5601 9.78133 3.54407 9.7966 3.5218C9.82721 3.47716 9.87682 3.40801 9.94526 3.32246C10.0829 3.15039 10.2921 2.91778 10.5708 2.68552C11.1272 2.22187 11.9336 1.77954 13.0042 1.77954C14.0503 1.77954 14.7943 2.21583 15.3002 2.87782C15.8255 3.56503 16.1184 4.53486 16.1184 5.57588C16.1184 6.61898 15.708 7.68396 15.0148 8.73172C14.3233 9.77699 13.3849 10.752 12.4188 11.5961C11.456 12.4372 10.4891 13.1283 9.76076 13.6098C9.45885 13.8094 9.19943 13.972 9.00022 14.0934C8.80102 13.972 8.5416 13.8094 8.23969 13.6098C7.51134 13.1283 6.5444 12.4372 5.58169 11.5961C4.61558 10.752 3.67716 9.77699 2.9856 8.73172C2.2924 7.68396 1.88208 6.61898 1.88208 5.57588Z" fill="#F94A29"/>
</svg>
