<svg width="131" height="130" viewBox="0 0 131 130" fill="none" xmlns="http://www.w3.org/2000/svg">
<g id="Frame 18">
<path id="Star 2" d="M65.6983 7.29203C66.2744 6.28584 67.7256 6.28584 68.3017 7.29203L75.1628 19.2745C76.4394 21.5039 79.3202 22.2139 81.4866 20.8331L93.1303 13.4117C94.1081 12.7885 95.393 13.4629 95.4356 14.6216L95.9423 28.42C96.0365 30.9873 98.2574 32.9549 100.817 32.739L114.576 31.5788C115.732 31.4814 116.556 32.6756 116.055 33.7214L110.091 46.1747C108.982 48.4918 110.034 51.266 112.401 52.2645L125.123 57.6313C126.191 58.082 126.366 59.5225 125.437 60.2158L114.369 68.4712C112.309 70.0071 111.952 72.9526 113.584 74.9367L122.354 85.601C123.091 86.4965 122.576 87.8534 121.431 88.0353L107.795 90.2015C105.257 90.6045 103.572 93.0463 104.095 95.5616L106.905 109.08C107.141 110.216 106.055 111.178 104.956 110.807L91.8748 106.388C89.4409 105.565 86.8137 106.944 86.1078 109.414L82.3136 122.69C81.995 123.805 80.5861 124.153 79.7858 123.314L70.2565 113.321C68.4835 111.462 65.5165 111.462 63.7435 113.321L54.2141 123.314C53.4139 124.153 52.005 123.805 51.6864 122.691L47.8922 109.414C47.1863 106.944 44.5591 105.565 42.1252 106.388L29.0438 110.807C27.9453 111.178 26.8591 110.216 27.0951 109.08L29.9053 95.5616C30.4281 93.0463 28.7427 90.6045 26.2054 90.2015L12.5687 88.0353C11.4236 87.8534 10.909 86.4965 11.6455 85.601L20.4163 74.9367C22.0482 72.9526 21.6905 70.0071 19.6312 68.4712L8.56318 60.2158C7.63377 59.5225 7.80868 58.082 8.87698 57.6313L21.5991 52.2645C23.9661 51.266 25.0182 48.4918 23.9086 46.1747L17.9448 33.7214C17.444 32.6756 18.2684 31.4814 19.4237 31.5788L33.1827 32.739C35.7426 32.9549 37.9635 30.9873 38.0577 28.42L38.5644 14.6216C38.607 13.4629 39.8919 12.7886 40.8697 13.4117L52.5134 20.8331C54.6798 22.2139 57.5606 21.5039 58.8372 19.2745L65.6983 7.29203Z" fill="#01131E" stroke="#01131E" stroke-width="3"/>
<path id="Star 1" d="M61.8305 6.80759C62.7907 5.1306 65.2093 5.1306 66.1695 6.80759L71.6418 16.3645C73.202 19.0893 76.723 19.9572 79.3709 18.2695L88.6576 12.3504C90.2872 11.3118 92.4287 12.4357 92.4996 14.3669L92.9038 25.3722C93.019 28.51 95.7334 30.9147 98.8622 30.6509L109.836 29.7255C111.762 29.5632 113.136 31.5536 112.301 33.2965L107.544 43.229C106.188 46.061 107.474 49.4517 110.367 50.6721L120.514 54.9525C122.294 55.7036 122.586 58.1045 121.037 59.2599L112.209 65.8442C109.692 67.7215 109.255 71.3215 111.25 73.7466L118.245 82.2522C119.473 83.7447 118.615 86.0061 116.707 86.3092L105.83 88.037C102.729 88.5296 100.669 91.514 101.308 94.5882L103.549 105.37C103.943 107.262 102.132 108.866 100.302 108.248L89.8682 104.723C86.8935 103.718 83.6824 105.403 82.8196 108.423L79.7935 119.011C79.2625 120.869 76.9142 121.448 75.5806 120.05L67.9802 112.08C65.8132 109.808 62.1868 109.808 60.0198 112.08L52.4194 120.05C51.0858 121.448 48.7375 120.869 48.2065 119.011L45.1804 108.423C44.3175 105.403 41.1065 103.718 38.1318 104.723L27.6983 108.248C25.8675 108.866 24.0572 107.262 24.4505 105.37L26.6919 94.5882C27.3309 91.514 25.2709 88.5296 22.1698 88.037L11.2935 86.3092C9.38497 86.0061 8.52734 83.7447 9.75485 82.2522L16.7502 73.7466C18.7447 71.3215 18.3076 67.7215 15.7907 65.8442L6.96308 59.2599C5.41406 58.1045 5.70559 55.7036 7.48609 54.9525L17.6329 50.6721C20.526 49.4517 21.8119 46.061 20.4557 43.229L15.6991 33.2965C14.8645 31.5536 16.2384 29.5632 18.164 29.7255L29.1378 30.6509C32.2666 30.9147 34.981 28.51 35.0962 25.3722L35.5004 14.3669C35.5713 12.4357 37.7128 11.3118 39.3424 12.3504L48.6291 18.2695C51.277 19.9572 54.798 19.0893 56.3582 16.3645L61.8305 6.80759Z" fill="#F94A29" stroke="#01131E" stroke-width="3"/>
<path id="Star 3" d="M61.3966 22.5467C62.5489 20.5343 65.4511 20.5343 66.6034 22.5467L70.363 29.1125C71.214 30.5988 73.1346 31.0722 74.5789 30.1516L80.9591 26.085C82.9146 24.8387 85.4844 26.1874 85.5695 28.5048L85.8472 36.0657C85.91 37.7772 87.3906 39.0889 89.0972 38.945L96.6365 38.3093C98.9472 38.1144 100.596 40.5029 99.5943 42.5944L96.3264 49.4183C95.5867 50.963 96.2881 52.8125 97.8661 53.4782L104.837 56.4189C106.974 57.3202 107.324 60.2013 105.465 61.5878L99.4001 66.1114C98.0272 67.1354 97.7888 69.099 98.8767 70.4218L103.683 76.2653C105.156 78.0563 104.127 80.77 101.836 81.1338L94.364 82.3208C92.6725 82.5895 91.5489 84.2174 91.8975 85.8942L93.4373 93.3019C93.9093 95.5723 91.7369 97.4968 89.54 96.7546L82.3719 94.3331C80.7493 93.785 78.9978 94.7042 78.5272 96.351L76.4482 103.626C75.811 105.855 72.9931 106.55 71.3927 104.872L66.171 99.3965C64.989 98.1571 63.011 98.1571 61.829 99.3965L56.6073 104.872C55.0069 106.55 52.189 105.855 51.5518 103.626L49.4728 96.351C49.0021 94.7042 47.2507 93.785 45.6281 94.3331L38.46 96.7546C36.2631 97.4968 34.0907 95.5723 34.5627 93.3019L36.1025 85.8942C36.4511 84.2174 35.3275 82.5895 33.636 82.3208L26.1637 81.1338C23.8734 80.77 22.8443 78.0563 24.3173 76.2653L29.1233 70.4218C30.2112 69.099 29.9728 67.1354 28.5999 66.1114L22.5351 61.5878C20.6763 60.2013 21.0261 57.3202 23.1627 56.4189L30.1339 53.4782C31.7119 52.8125 32.4133 50.963 31.6736 49.4183L28.4057 42.5944C27.4041 40.5029 29.0528 38.1144 31.3635 38.3093L38.9028 38.945C40.6094 39.0889 42.09 37.7772 42.1528 36.0657L42.4305 28.5048C42.5156 26.1874 45.0854 24.8387 47.0409 26.085L53.4211 30.1516C54.8654 31.0722 56.786 30.5988 57.637 29.1125L61.3966 22.5467Z" fill="#01131E"/>
<path id="Star 4" d="M62.2644 30.0311C63.0326 28.6895 64.9674 28.6895 65.7356 30.0311L69.3333 36.3142C69.9006 37.305 71.181 37.6206 72.1439 37.0069L78.2493 33.1155C79.553 32.2845 81.2662 33.1837 81.3229 34.7286L81.5886 41.9639C81.6305 43.1049 82.6176 43.9794 83.7553 43.8835L90.9699 43.2751C92.5104 43.1452 93.6095 44.7375 92.9418 46.1319L89.8146 52.6619C89.3215 53.6917 89.7891 54.9247 90.8411 55.3684L97.512 58.1825C98.9364 58.7834 99.1696 60.7042 97.9304 61.6285L92.1268 65.9572C91.2116 66.6399 91.0526 67.949 91.7779 68.8308L96.3769 74.4227C97.3589 75.6167 96.6728 77.4258 95.146 77.6684L87.9955 78.8042C86.8678 78.9834 86.1187 80.0686 86.3511 81.1865L87.8247 88.2752C88.1393 89.7888 86.691 91.0718 85.2264 90.577L78.3671 88.2598C77.2853 87.8943 76.1177 88.5071 75.804 89.605L73.8145 96.5665C73.3897 98.0529 71.511 98.5159 70.4441 97.3972L65.4473 92.1577C64.6593 91.3314 63.3407 91.3314 62.5527 92.1577L57.5559 97.3972C56.489 98.5159 54.6103 98.0529 54.1855 96.5665L52.196 89.605C51.8823 88.5071 50.7147 87.8943 49.6329 88.2598L42.7736 90.577C41.3089 91.0718 39.8607 89.7888 40.1753 88.2752L41.6489 81.1865C41.8813 80.0686 41.1322 78.9834 40.0045 78.8042L32.854 77.6684C31.3272 77.4258 30.6411 75.6167 31.6231 74.4227L36.2221 68.8308C36.9474 67.949 36.7884 66.6399 35.8732 65.9572L30.0696 61.6285C28.8304 60.7042 29.0636 58.7834 30.488 58.1825L37.1589 55.3684C38.2109 54.9247 38.6785 53.6917 38.1854 52.6619L35.0582 46.1319C34.3905 44.7375 35.4896 43.1452 37.0301 43.2751L44.2447 43.8835C45.3824 43.9794 46.3695 43.1049 46.4114 41.9639L46.6771 34.7286C46.7338 33.1837 48.447 32.2845 49.7507 33.1155L55.8561 37.0069C56.819 37.6206 58.0994 37.305 58.6667 36.3142L62.2644 30.0311Z" fill="#F94A29"/>
</g>
</svg>
