<svg width="24" height="24" viewBox="0 0 24 24" fill="none" xmlns="http://www.w3.org/2000/svg">
<path d="M19.8 0H4.2C1.8804 0 0 1.8804 0 4.2V19.8C0 22.1196 1.8804 24 4.2 24H19.8C22.1196 24 24 22.1196 24 19.8V4.2C24 1.8804 22.1196 0 19.8 0Z" fill="#2E0501"/>
<path d="M12.1993 14.6543H8.58812L7.68533 17.3947C7.67495 17.4783 7.61788 17.52 7.51411 17.52H5.87974C5.77597 17.52 5.73966 17.4678 5.77079 17.3634L9.00839 8.06163C9.08103 7.90503 9.12772 7.61272 9.14848 7.18469C9.14848 7.12205 9.1848 7.09073 9.25744 7.09073H11.4989C11.5507 7.09073 11.5922 7.11683 11.6234 7.16903L15.2345 17.3791C15.2657 17.473 15.2345 17.52 15.1412 17.52H13.3044C13.2318 17.52 13.1799 17.4835 13.1488 17.4104L12.1993 14.6543ZM8.99282 13.1353H11.7946C11.7531 12.9892 11.5352 12.3263 11.1408 11.1466C10.7569 9.95644 10.5027 9.14214 10.3781 8.70367H10.3626C10.2381 9.2361 9.78147 10.7133 8.99282 13.1353Z" fill="#F2A032"/>
<path d="M16.2009 17.3791V10.0191C16.2009 9.93556 16.2424 9.8938 16.3255 9.8938H18.0532C18.1362 9.8938 18.1777 9.93556 18.1777 10.0191V17.3947C18.1777 17.4783 18.1362 17.52 18.0532 17.52H16.341C16.2476 17.52 16.2009 17.473 16.2009 17.3791ZM17.9598 8.31218C17.773 8.5001 17.5188 8.59405 17.1971 8.59405C16.8754 8.59405 16.6212 8.5001 16.4344 8.31218C16.2476 8.12427 16.1542 7.86849 16.1542 7.54486C16.1542 7.23167 16.2528 6.9759 16.45 6.77754C16.6471 6.57919 16.9014 6.48001 17.2127 6.48001C17.524 6.48001 17.773 6.57919 17.9598 6.77754C18.1466 6.9759 18.24 7.23167 18.24 7.54486C18.24 7.86849 18.1466 8.12427 17.9598 8.31218Z" fill="#F2A032"/>
</svg>
