<svg width="18" height="17" viewBox="0 0 18 17" fill="none" xmlns="http://www.w3.org/2000/svg">
<g id="Group 34">
<g id="vector">
<path fill-rule="evenodd" clip-rule="evenodd" d="M2.60131 2.87853C2.07439 3.56648 1.77954 4.53645 1.77954 5.57588C1.77954 6.61898 2.18986 7.68396 2.88307 8.73172C3.57462 9.77699 4.51304 10.752 5.47915 11.5961C6.44186 12.4372 7.4088 13.1283 8.13715 13.6098C8.43906 13.8094 8.69848 13.972 8.89768 14.0934C9.09689 13.972 9.35631 13.8094 9.65822 13.6098C10.3866 13.1283 11.3535 12.4372 12.3162 11.5961C13.2823 10.752 14.2207 9.77699 14.9123 8.73172C15.6055 7.68396 16.0158 6.61898 16.0158 5.57588C16.0158 4.53486 15.7229 3.56503 15.1977 2.87782C14.6917 2.21583 13.9478 1.77954 12.9016 1.77954C11.831 1.77954 11.0247 2.22187 10.4683 2.68552C10.1896 2.91778 9.98037 3.15039 9.84272 3.32246C9.77428 3.40801 9.72467 3.47716 9.69406 3.5218C9.67879 3.54407 9.66835 3.5601 9.66275 3.56884C9.66075 3.57197 9.65863 3.57535 9.65863 3.57535L8.90085 4.83832L8.13839 3.57806C8.13839 3.57806 8.13621 3.57461 8.13414 3.5714C8.12845 3.56258 8.11787 3.54647 8.10244 3.52411C8.0715 3.4793 8.02144 3.40996 7.95249 3.32422C7.81381 3.15177 7.60335 2.91874 7.32361 2.6861C6.76473 2.22134 5.95814 1.77954 4.89373 1.77954C3.85403 1.77954 3.10941 2.21515 2.60131 2.87853ZM8.89768 15.1261C8.466 15.9041 8.46554 15.9038 8.46554 15.9038L8.46306 15.9025C8.46306 15.9025 8.45963 15.9005 8.4572 15.8992C8.45234 15.8965 8.44557 15.8927 8.43695 15.8878C8.41972 15.8781 8.39511 15.8641 8.3636 15.8459C8.30058 15.8096 8.20993 15.7567 8.0956 15.688C7.86702 15.5508 7.54318 15.3504 7.15574 15.0943C6.38261 14.5831 5.34757 13.8442 4.3083 12.9362C3.27243 12.0312 2.20887 10.9378 1.39894 9.71363C0.59067 8.49194 0 7.08636 0 5.57588C0 4.22777 0.378036 2.85468 1.18855 1.79646C2.01788 0.713672 3.27524 0 4.89373 0C6.48749 0 7.68289 0.670411 8.46144 1.31786C8.623 1.45221 8.76785 1.5865 8.8961 1.71512C9.02382 1.58666 9.16809 1.45258 9.32906 1.31844C10.1073 0.669879 11.3029 0 12.9016 0C14.5248 0 15.7829 0.712986 16.6115 1.79717C17.4209 2.85613 17.7954 4.22936 17.7954 5.57588C17.7954 7.08636 17.2047 8.49194 16.3964 9.71363C15.5865 10.9378 14.5229 12.0312 13.4871 12.9362C12.4478 13.8442 11.4128 14.5831 10.6396 15.0943C10.2522 15.3504 9.92834 15.5508 9.69977 15.688C9.58543 15.7567 9.49479 15.8096 9.43177 15.8459C9.40026 15.8641 9.37564 15.8781 9.35841 15.8878C9.35435 15.8901 9.35069 15.8922 9.34745 15.894C9.34383 15.896 9.34073 15.8978 9.33817 15.8992C9.33574 15.9005 9.33231 15.9025 9.33231 15.9025L9.32982 15.9038C9.32982 15.9038 9.32936 15.9041 8.89768 15.1261ZM8.89768 15.1261L9.32982 15.9038L8.89768 16.1436L8.46554 15.9038L8.89768 15.1261Z" fill="black"/>
<path d="M1.77954 5.57588C1.77954 4.53645 2.07439 3.56648 2.60131 2.87853C3.10941 2.21515 3.85403 1.77954 4.89373 1.77954C5.95814 1.77954 6.76473 2.22134 7.32361 2.6861C7.60335 2.91874 7.81381 3.15177 7.95249 3.32422C8.02144 3.40996 8.0715 3.4793 8.10244 3.52411C8.11787 3.54647 8.12845 3.56258 8.13414 3.5714L8.13839 3.57806L8.90085 4.83832L9.65863 3.57535L9.66275 3.56884C9.66835 3.5601 9.67879 3.54407 9.69406 3.5218C9.72467 3.47716 9.77428 3.40801 9.84272 3.32246C9.98037 3.15039 10.1896 2.91778 10.4683 2.68552C11.0247 2.22187 11.831 1.77954 12.9016 1.77954C13.9478 1.77954 14.6917 2.21583 15.1977 2.87782C15.7229 3.56503 16.0158 4.53486 16.0158 5.57588C16.0158 6.61898 15.6055 7.68396 14.9123 8.73172C14.2207 9.77699 13.2823 10.752 12.3162 11.5961C11.3535 12.4372 10.3866 13.1283 9.65822 13.6098C9.35631 13.8094 9.09689 13.972 8.89768 14.0934C8.69848 13.972 8.43906 13.8094 8.13715 13.6098C7.4088 13.1283 6.44186 12.4372 5.47915 11.5961C4.51304 10.752 3.57462 9.77699 2.88307 8.73172C2.18986 7.68396 1.77954 6.61898 1.77954 5.57588Z" fill="black"/>
</g>
</g>
</svg>
