<svg width="22" height="21" viewBox="0 0 22 21" fill="none" xmlns="http://www.w3.org/2000/svg">
<path d="M12.2783 3.90213C11.8587 3.85261 11.4322 3.82423 11 3.81717C9.11121 3.82631 7.15325 4.32751 5.29993 5.28789C3.92387 6.03033 2.58342 7.07847 1.41931 8.37137C0.847587 9.03137 0.117902 9.98701 0 11.0066C0.0139333 11.8899 0.882805 12.98 1.41931 13.6419C2.51093 14.884 3.81647 15.9022 5.29993 16.7254C5.35035 16.7521 5.40095 16.7785 5.45166 16.8045L4.07534 19.4265L5.94543 20.6322L16.0547 1.43157L14.2546 0.231415L12.2783 3.90213ZM16.547 5.21171L15.1733 7.80885C15.8053 8.70449 16.1804 9.80897 16.1804 11.0066C16.1804 13.9918 13.8608 16.4119 10.9986 16.4119C10.8749 16.4119 10.755 16.3973 10.6334 16.3885L9.72435 18.1053C10.1436 18.1542 10.5675 18.1899 11 18.1961C12.8906 18.1868 14.8474 17.6798 16.6987 16.7254C18.0748 15.9829 19.4166 14.9348 20.5807 13.6419C21.1524 12.9819 21.8821 12.0263 22 11.0066C21.986 10.1234 21.1172 9.03323 20.5807 8.37135C19.489 7.12923 18.1822 6.11109 16.6987 5.28785C16.6486 5.26137 16.5974 5.23755 16.547 5.21171ZM10.9987 5.60137C11.1242 5.60137 11.2487 5.60685 11.3719 5.61601L10.3071 7.62723C8.81271 7.95775 7.6914 9.34484 7.6914 11.0052C7.6914 11.4223 7.76182 11.8216 7.89147 12.1917V12.1932L6.82396 14.2102C6.19053 13.3138 5.81687 12.2057 5.81687 11.0066C5.81689 8.0215 8.13648 5.60135 10.9987 5.60137ZM14.0964 9.84207L11.6969 14.3772C13.1833 14.0405 14.2965 12.6597 14.2965 11.0052C14.2965 10.5957 14.2216 10.2064 14.0964 9.84207Z" fill="#5A5A5A"/>
</svg>
