<svg width="24" height="24" viewBox="0 0 24 24" fill="none" xmlns="http://www.w3.org/2000/svg">
<path d="M19.8 0H4.2C1.8804 0 0 1.8804 0 4.2V19.8C0 22.1196 1.8804 24 4.2 24H19.8C22.1196 24 24 22.1196 24 19.8V4.2C24 1.8804 22.1196 0 19.8 0Z" fill="#001E36"/>
<path d="M5.40002 17.0152V6.86018C5.40002 6.78749 5.43642 6.75115 5.50922 6.75115C6.29958 6.73038 7.30313 6.72 8.51986 6.72C9.95499 6.72 11.0053 7.04189 11.6709 7.68567C12.3469 8.32944 12.6848 9.12378 12.6848 10.0687C12.6848 11.242 12.2689 12.1142 11.4369 12.6853C10.605 13.2564 9.55981 13.5419 8.30147 13.5419H7.38112V16.9996C7.38112 17.0827 7.33952 17.1242 7.25633 17.1242H5.52482C5.44162 17.1242 5.40002 17.0879 5.40002 17.0152ZM7.38112 8.21522V12.0467C7.52671 12.0675 7.8647 12.0779 8.39507 12.0779C9.09183 12.0779 9.6534 11.9273 10.0798 11.6262C10.5166 11.3147 10.7349 10.8111 10.7349 10.1154C10.7349 9.50277 10.5426 9.03033 10.1578 8.69805C9.7834 8.36578 9.23742 8.19965 8.51986 8.19965C8.34307 8.19965 8.16628 8.20484 7.98949 8.21522C7.8231 8.21522 7.68271 8.21522 7.56831 8.21522C7.46432 8.21522 7.40192 8.21522 7.38112 8.21522Z" fill="#31A8FE"/>
<path d="M18.1273 11.3303C17.5449 10.9668 16.9365 10.7851 16.3021 10.7851C15.9382 10.7851 15.6678 10.8526 15.491 10.9876C15.3246 11.1226 15.2414 11.2835 15.2414 11.4704C15.2414 11.6573 15.3142 11.8235 15.4598 11.9689C15.6054 12.1038 15.9122 12.2648 16.3801 12.4517C17.2433 12.784 17.8465 13.137 18.1897 13.5108C18.5432 13.8742 18.72 14.3467 18.72 14.9281C18.72 15.6342 18.4496 16.2053 17.9089 16.6414C17.3785 17.0671 16.6557 17.28 15.7406 17.28C14.8254 17.28 14.0767 17.1139 13.4943 16.7816C13.4319 16.7608 13.4007 16.7089 13.4007 16.6258V15.1773C13.4007 15.1358 13.4111 15.1099 13.4319 15.0995C13.4631 15.0787 13.4891 15.0787 13.5099 15.0995C14.1859 15.5979 14.9086 15.8471 15.6782 15.8471C16.0422 15.8471 16.3177 15.7848 16.5049 15.6602C16.7025 15.5252 16.8013 15.3539 16.8013 15.1462C16.8013 14.9281 16.7233 14.7464 16.5673 14.6011C16.4113 14.4453 16.1046 14.2792 15.647 14.1027C14.815 13.7808 14.2327 13.4381 13.8999 13.0747C13.5775 12.7009 13.4163 12.2336 13.4163 11.6729C13.4163 11.0291 13.6607 10.4892 14.1495 10.0531C14.6382 9.61699 15.335 9.39894 16.2398 9.39894C17.0821 9.39894 17.7321 9.51316 18.1897 9.74159C18.2416 9.77274 18.2676 9.84024 18.2676 9.94407V11.2368C18.2676 11.3614 18.2208 11.3926 18.1273 11.3303Z" fill="#31A8FE"/>
</svg>
