<svg width="10" height="10" viewBox="0 0 10 10" fill="none" xmlns="http://www.w3.org/2000/svg">
<path d="M4.56598 0.758837C4.75797 0.42316 5.24203 0.42316 5.43402 0.758836L5.66207 1.15756C5.79996 1.39864 6.1079 1.48115 6.34785 1.34131L6.74471 1.11003C7.07882 0.915326 7.49802 1.15735 7.49646 1.54406L7.49459 2.00338C7.49347 2.28111 7.71889 2.50653 7.99662 2.50541L8.45595 2.50354C8.84265 2.50198 9.08467 2.92118 8.88997 3.25529L8.65869 3.65215C8.51885 3.8921 8.60136 4.20004 8.84244 4.33793L9.24116 4.56598C9.57684 4.75797 9.57684 5.24203 9.24116 5.43402L8.84244 5.66207C8.60137 5.79996 8.51885 6.1079 8.65869 6.34785L8.88997 6.74471C9.08467 7.07882 8.84265 7.49802 8.45594 7.49646L7.99662 7.49459C7.71889 7.49347 7.49347 7.71889 7.49459 7.99662L7.49646 8.45595C7.49802 8.84265 7.07882 9.08467 6.74471 8.88997L6.34785 8.65869C6.1079 8.51885 5.79996 8.60136 5.66207 8.84244L5.43402 9.24116C5.24203 9.57684 4.75797 9.57684 4.56598 9.24116L4.33793 8.84244C4.20004 8.60137 3.8921 8.51885 3.65215 8.65869L3.25529 8.88997C2.92118 9.08467 2.50198 8.84265 2.50354 8.45594L2.50541 7.99662C2.50653 7.71889 2.28111 7.49347 2.00338 7.49459L1.54406 7.49646C1.15736 7.49802 0.915325 7.07882 1.11003 6.74471L1.34131 6.34785C1.48115 6.1079 1.39864 5.79996 1.15756 5.66207L0.758837 5.43402C0.42316 5.24203 0.42316 4.75797 0.758836 4.56598L1.15756 4.33793C1.39864 4.20004 1.48115 3.8921 1.34131 3.65215L1.11003 3.25529C0.915326 2.92118 1.15735 2.50198 1.54406 2.50354L2.00338 2.50541C2.28111 2.50653 2.50653 2.28111 2.50541 2.00338L2.50354 1.54406C2.50198 1.15736 2.92118 0.915325 3.25529 1.11003L3.65215 1.34131C3.8921 1.48115 4.20004 1.39864 4.33793 1.15756L4.56598 0.758837Z" fill="#5A5A5A"/>
</svg>
