<svg width="45" height="73" viewBox="0 0 45 73" fill="none" xmlns="http://www.w3.org/2000/svg">
<path d="M32.2639 0.523359C31.4484 0.377729 30.6692 0.920788 30.5236 1.73631C30.3779 2.55184 30.921 3.33101 31.7365 3.47664L32.2639 0.523359ZM12 48L11.9434 46.5011L11.8813 46.5034L11.8195 46.5109L12 48ZM27.5013 71.06C27.5344 71.8877 28.2323 72.5319 29.06 72.4988L42.5493 71.9592C43.377 71.9261 44.0212 71.2283 43.9881 70.4005C43.955 69.5727 43.2571 68.9285 42.4294 68.9616L30.4389 69.4412L29.9593 57.4508C29.9262 56.6231 29.2283 55.9789 28.4006 56.012C27.5728 56.0451 26.9286 56.743 26.9617 57.5707L27.5013 71.06ZM31.7365 3.47664C35.702 4.18477 38.0595 6.8707 39.0194 10.8084C39.9985 14.8248 39.4724 20.063 37.5294 25.3583C33.6272 35.9933 24.3588 46.0326 11.9434 46.5011L12.0566 49.4989C26.1412 48.9674 36.2063 37.6733 40.3458 26.3917C42.4237 20.7287 43.0956 14.8627 41.9341 10.0979C40.7533 5.2543 37.6317 1.4819 32.2639 0.523359L31.7365 3.47664ZM11.8195 46.5109C7.97982 46.9763 5.65419 46.0378 4.45934 44.7687C3.28168 43.5178 2.9016 41.6274 3.61224 39.4691C5.03509 35.1479 10.9241 30 22 30V27C10.0758 27 2.71488 32.6021 0.762736 38.5309C-0.21411 41.4976 0.187063 44.6072 2.27504 46.8251C4.34583 49.0247 7.7702 50.0237 12.1805 49.4891L11.8195 46.5109ZM22 30C28.6796 30 33.3195 31.402 36.3212 33.6073C39.2756 35.7778 40.7939 38.8353 41.0508 42.5412C41.5759 50.1145 36.7939 60.3452 27.8979 69.9826L30.1023 72.0174C39.2063 62.1548 44.6538 51.1355 44.0436 42.3338C43.7329 37.8522 41.8424 33.941 38.0974 31.1896C34.3998 28.473 29.05 27 22 27V30Z" fill="#01131E"/>
</svg>
