<svg width="22" height="24" viewBox="0 0 22 24" fill="none" xmlns="http://www.w3.org/2000/svg">
<path d="M11 9C10.2044 9 9.44129 9.31607 8.87868 9.87868C8.31607 10.4413 8 11.2044 8 12C8 12.7956 8.31607 13.5587 8.87868 14.1213C9.44129 14.6839 10.2044 15 11 15C11.7956 15 12.5587 14.6839 13.1213 14.1213C13.6839 13.5587 14 12.7956 14 12C14 11.2044 13.6839 10.4413 13.1213 9.87868C12.5587 9.31607 11.7956 9 11 9ZM11 17C9.67392 17 8.40215 16.4732 7.46447 15.5355C6.52678 14.5979 6 13.3261 6 12C6 10.6739 6.52678 9.40215 7.46447 8.46447C8.40215 7.52678 9.67392 7 11 7C12.3261 7 13.5979 7.52678 14.5355 8.46447C15.4732 9.40215 16 10.6739 16 12C16 13.3261 15.4732 14.5979 14.5355 15.5355C13.5979 16.4732 12.3261 17 11 17ZM11 4.5C6.13943 4.5 1.96872 7.43897 0.150616 11.6358C0.0499498 11.8681 0.0499497 12.1319 0.150616 12.3642C1.96872 16.561 6.13943 19.5 11 19.5C15.8606 19.5 20.0313 16.561 21.8494 12.3642C21.9501 12.1319 21.9501 11.8681 21.8494 11.6358C20.0313 7.43897 15.8606 4.5 11 4.5Z" fill="#5A5A5A"/>
</svg>
