<svg width="257" height="269" viewBox="0 0 257 269" fill="none" xmlns="http://www.w3.org/2000/svg">
<path d="M128.104 1.96739C128.304 1.70811 128.696 1.70811 128.896 1.96739L157.463 38.9729C158.344 40.114 159.834 40.5983 161.218 40.1929L206.081 27.0462C206.395 26.9541 206.711 27.1841 206.721 27.5115L208.081 74.241C208.123 75.682 209.044 76.9498 210.402 77.435L254.424 93.1688C254.732 93.279 254.853 93.6511 254.668 93.9216L228.302 132.526C227.489 133.716 227.489 135.284 228.302 136.474L254.668 175.078C254.853 175.349 254.732 175.721 254.424 175.831L210.402 191.565C209.044 192.05 208.123 193.318 208.081 194.759L206.721 241.488C206.711 241.816 206.395 242.046 206.081 241.954L161.218 228.807C159.834 228.402 158.344 228.886 157.463 230.027L128.896 267.033C128.696 267.292 128.304 267.292 128.104 267.033L99.5369 230.027C98.656 228.886 97.1656 228.402 95.7822 228.807L50.9195 241.954C50.6051 242.046 50.2886 241.816 50.2791 241.488L48.919 194.759C48.877 193.318 47.9559 192.05 46.5984 191.565L2.5763 175.831C2.26785 175.721 2.14694 175.349 2.33169 175.078L28.6982 136.474C29.5113 135.284 29.5113 133.716 28.6982 132.526L2.33169 93.9216C2.14694 93.6511 2.26785 93.279 2.57629 93.1688L46.5984 77.435L46.0936 76.0225L46.5984 77.435C47.9559 76.9498 48.877 75.682 48.919 74.241L50.2791 27.5115C50.2886 27.1841 50.6051 26.9541 50.9195 27.0462L95.7822 40.1929C97.1656 40.5983 98.656 40.114 99.5369 38.9729L128.104 1.96739Z" fill="#F94A29" stroke="#01131E" stroke-width="3"/>
</svg>
