<svg width="102" height="99" viewBox="0 0 102 99" fill="none" xmlns="http://www.w3.org/2000/svg">
<path d="M49.0311 2.03784C49.4232 -0.160542 52.5768 -0.160555 52.9689 2.03783L58.4536 32.7851C58.6931 34.1277 60.1766 34.8421 61.3755 34.1923L88.8344 19.3097C90.7976 18.2457 92.7639 20.7112 91.2896 22.3885L70.67 45.8472C69.7697 46.8715 70.1361 48.4767 71.3917 49.009L100.148 61.1981C102.204 62.0696 101.502 65.1441 99.2714 65.0372L68.0745 63.5424C66.7123 63.4772 65.6857 64.7645 66.0525 66.078L74.4517 96.1601C75.0522 98.3109 72.211 99.6792 70.9038 97.8687L52.6216 72.546C51.8233 71.4403 50.1767 71.4403 49.3784 72.546L31.0962 97.8686C29.789 99.6792 26.9478 98.3109 27.5483 96.1601L35.9475 66.078C36.3143 64.7645 35.2877 63.4772 33.9255 63.5424L2.72862 65.0372C0.498096 65.1441 -0.20365 62.0696 1.85235 61.1981L30.6083 49.009C31.8639 48.4767 32.2303 46.8715 31.33 45.8472L10.7104 22.3885C9.23614 20.7112 11.2023 18.2457 13.1656 19.3097L40.6245 34.1923C41.8234 34.8421 43.3069 34.1277 43.5464 32.7851L49.0311 2.03784Z" fill="black"/>
</svg>
