<svg width="24" height="24" viewBox="0 0 24 24" fill="none" xmlns="http://www.w3.org/2000/svg">
<rect width="24" height="24" rx="4" fill="#0077FF"/>
<path d="M0 11.52C0 6.0894 0 3.3741 1.6872 1.6872C3.3741 0 6.0894 0 11.52 0H12.48C17.9106 0 20.6259 0 22.3128 1.6872C24 3.3741 24 6.0894 24 11.52V12.48C24 17.9106 24 20.6259 22.3128 22.3128C20.6259 24 17.9106 24 12.48 24H11.52C6.0894 24 3.3741 24 1.6872 22.3128C0 20.6259 0 17.9106 0 12.48V11.52Z" fill="#0077FF"/>
<path d="M12.77 17.2903C7.29977 17.2903 4.18007 13.5403 4.04987 7.30026H6.78977C6.87977 11.8804 8.89997 13.8208 10.4999 14.2204V7.30056H13.0799V11.2504C14.66 11.0803 16.3199 9.28026 16.8797 7.30056H19.4597C19.0298 9.74046 17.2298 11.5405 15.9497 12.2806C17.2298 12.8806 19.2797 14.4505 20.0597 17.2906H17.2199C16.61 15.3904 15.0899 13.9204 13.0799 13.7206V17.2906H12.77V17.2903Z" fill="white"/>
</svg>
